<svg id="mortarboard" xmlns="http://www.w3.org/2000/svg" viewBox="0 0 102.34 96.25"><defs><style>.cls-1{fill:#fffdeb;}.cls-2{fill:#ff5c5c;}.cls-3{fill:#f7eac6;}.cls-4{fill:#f24165;}.cls-5{fill:#ffb5a6;}.cls-6{fill:#2c3d60;}.cls-7{fill:#fef3b3;}.cls-8{fill:#8fb4ff;}.cls-9{fill:#8a97ff;}.cls-10{fill:#b8dbff;}.cls-11{fill:none;}</style></defs><title>mortarboard</title><g id="scroll"><g id="colors"><path class="cls-1" d="M127.52,116.58c2.62,5,2.62,17,0,22a130.88,130.88,0,0,0-22.79-3.35,66.14,66.14,0,0,0,0-15.34A131.13,131.13,0,0,0,127.52,116.58Z" transform="translate(-48.24 -58.75)"/><path class="cls-2" d="M104.08,135.24,109.69,151l-4.3-1.33-2.5,3.75-5.33-15-5.33,15-2.5-3.75L85.43,151,91,135.24A123.12,123.12,0,0,1,104.08,135.24Z" transform="translate(-48.24 -58.75)"/><path class="cls-2" d="M104.72,119.93a66.14,66.14,0,0,1,0,15.34h-.65a123.12,123.12,0,0,0-13,0h-.65a65.59,65.59,0,0,1,0-15.34c2.39.13,4.77.2,7.16.2S102.33,120.07,104.72,119.93Z" transform="translate(-48.24 -58.75)"/><path class="cls-1" d="M90.4,119.93a65.59,65.59,0,0,0,0,15.34,130.6,130.6,0,0,0-22.79,3.35c-2.63-5-2.63-17,0-22A130.6,130.6,0,0,0,90.4,119.93Z" transform="translate(-48.24 -58.75)"/></g><g id="shadows"><path class="cls-3" d="M90.3,135.32a121.78,121.78,0,0,0-22.68,3.3l-.45-1A62.3,62.3,0,0,1,90.11,131Z" transform="translate(-48.24 -58.75)"/><path class="cls-4" d="M97.52,130.67c-2.41,0-4.89.11-7.41.36l.19,4.29q3.57-.18,7.22-.18t7.22.18l.19-4.29C102.41,130.78,99.93,130.67,97.52,130.67Z" transform="translate(-48.24 -58.75)"/><path class="cls-3" d="M104.74,135.32a121.78,121.78,0,0,1,22.68,3.3l.45-1A62.3,62.3,0,0,0,104.93,131Z" transform="translate(-48.24 -58.75)"/><path class="cls-5" d="M92.83,123.35h9.38a2,2,0,0,1,2,2h0a2,2,0,0,1-2,2H92.83a2,2,0,0,1-2-2h0A2,2,0,0,1,92.83,123.35Z" transform="translate(-48.24 -58.75)"/><path class="cls-4" d="M89,141.1a46.21,46.21,0,0,1,17.2,0l-1.78-5.78H90.93Z" transform="translate(-48.24 -58.75)"/></g><g id="lines"><path class="cls-6" d="M67.6,140.12a1.5,1.5,0,0,1-1.33-.8c-2.87-5.48-2.87-18,0-23.44a1.5,1.5,0,0,1,1.67-.76,127.11,127.11,0,0,0,59.22,0,1.5,1.5,0,0,1,1.67.76c2.87,5.48,2.87,18,0,23.44a1.51,1.51,0,0,1-1.67.76,127.11,127.11,0,0,0-59.22,0A1.5,1.5,0,0,1,67.6,140.12Zm.87-21.8c-1.76,4.69-1.76,13.87,0,18.56a130,130,0,0,1,58.18,0c1.76-4.69,1.76-13.87,0-18.56A130,130,0,0,1,68.47,118.32Z" transform="translate(-48.24 -58.75)"/><path class="cls-6" d="M88.9,135.42a66.62,66.62,0,0,1,0-15.64l3,.3a64.12,64.12,0,0,0,0,15Z" transform="translate(-48.24 -58.75)"/><path class="cls-6" d="M106.22,135.42l-3-.3a64.65,64.65,0,0,0,0-15l3-.3A67.21,67.21,0,0,1,106.22,135.42Z" transform="translate(-48.24 -58.75)"/><path class="cls-6" d="M97.56,126.88a1,1,0,0,1-1-1v-5.75a1,1,0,0,1,2,0v5.75A1,1,0,0,1,97.56,126.88Z" transform="translate(-48.24 -58.75)"/><path class="cls-6" d="M97.58,130.25a1,1,0,0,1,0-2h0a1,1,0,1,1,0,2Z" transform="translate(-48.24 -58.75)"/><path class="cls-6" d="M102.89,155h-.19a1.5,1.5,0,0,1-1.23-1l-5.33-15A1.5,1.5,0,0,1,99,138l4.33,12.21.84-1.26a1.5,1.5,0,0,1,1.69-.6l1.44.45-4.65-13.09a1.5,1.5,0,0,1,2.83-1l5.65,15.91a1.5,1.5,0,0,1-1.86,1.94l-3.23-1-1.88,2.81A1.5,1.5,0,0,1,102.89,155Z" transform="translate(-48.24 -58.75)"/><path class="cls-6" d="M92.22,155a1.5,1.5,0,0,1-1.22-.7l-1.88-2.81-3.23,1A1.5,1.5,0,0,1,84,150.55l5.65-15.91a1.5,1.5,0,0,1,2.83,1h0l-4.65,13.09,1.44-.45a1.5,1.5,0,0,1,1.69.6l.84,1.26,4.25-12v-2.91a1.5,1.5,0,0,1,3,0v3.17a1.5,1.5,0,0,1-.09.5l-5.33,15a1.5,1.5,0,0,1-1.23,1Z" transform="translate(-48.24 -58.75)"/></g></g><g id="mortarboard-2"><g id="colors-2"><path class="cls-7" d="M149.09,99.15v7.22h-8.24V99.15a4.12,4.12,0,1,1,8.24,0Z" transform="translate(-48.24 -58.75)"/><path class="cls-8" d="M123.2,89.28l-24.26,9a4.52,4.52,0,0,1-3.12,0l-24.26-9h0L50.8,81.58a1.53,1.53,0,0,1,0-2.86L95.7,60.57a4.54,4.54,0,0,1,3.36,0l45,18.15a1.53,1.53,0,0,1,0,2.86Z" transform="translate(-48.24 -58.75)"/><path class="cls-8" d="M123.2,110.37q-4.89,1.25-9.78,2a101.61,101.61,0,0,1-22.49,1.06,105.78,105.78,0,0,1-19.37-3.08V89.28l24.26,9a4.52,4.52,0,0,0,3.12,0l24.26-9Z" transform="translate(-48.24 -58.75)"/></g><g id="shadows-2"><path class="cls-9" d="M71.56,93.5,94.1,102a9.12,9.12,0,0,1,5.9,8.53v3.1l23.2-3.29V89.14l-25.68,9.4-26-9.28Z" transform="translate(-48.24 -58.75)"/><path class="cls-10" d="M65.54,78.62l39.11-15.79-7.27-3.08L49.8,79.39l3.06,2.27h0L54.67,83l.85-.34,42,15.88L65.39,82.4a2.07,2.07,0,0,1,.15-3.78Z" transform="translate(-48.24 -58.75)"/></g><g id="lines-2"><path class="cls-6" d="M97.32,115.15q-3.25,0-6.49-.21a107.54,107.54,0,0,1-19.64-3.12,1.5,1.5,0,0,1-1.13-1.45V89.27a1.5,1.5,0,0,1,3,0V109.2A104.24,104.24,0,0,0,91,112a102.24,102.24,0,0,0,30.68-2.76v-20a1.5,1.5,0,0,1,3,0v21.1a1.5,1.5,0,0,1-1.13,1.45A106.34,106.34,0,0,1,97.32,115.15Z" transform="translate(-48.24 -58.75)"/><path class="cls-6" d="M97.38,100a6,6,0,0,1-2.08-.37L50.27,83h0a3,3,0,0,1-.08-5.65l45-18.17a6,6,0,0,1,4.48,0l45,18.15a3,3,0,0,1-.08,5.65l-45,16.69A6,6,0,0,1,97.38,100ZM51.32,80.17l45,16.69a3,3,0,0,0,2.08,0l45-16.69L98.5,62a3,3,0,0,0-2.24,0l-45,18.11-.52,1.46Z" transform="translate(-48.24 -58.75)"/><line class="cls-11" x1="96.72" y1="21.45" x2="96.72" y2="36.28"/><path class="cls-6" d="M145,96.53a1.5,1.5,0,0,1-1.5-1.5V80.2a1.5,1.5,0,0,1,3,0V95A1.5,1.5,0,0,1,145,96.53Z" transform="translate(-48.24 -58.75)"/><path class="cls-6" d="M149.08,107.87h-8.24a1.5,1.5,0,0,1-1.5-1.5V99.15a5.62,5.62,0,1,1,11.24,0v7.22A1.5,1.5,0,0,1,149.08,107.87Zm-6.74-3h5.24V99.15a2.62,2.62,0,1,0-5.24,0Z" transform="translate(-48.24 -58.75)"/><path class="cls-6" d="M92.31,68.82a1,1,0,0,1-.93-.62,1.06,1.06,0,0,1,0-.76.9.9,0,0,1,.22-.33,1,1,0,0,1,1.41,0,.91.91,0,0,1,.22.33,1.07,1.07,0,0,1,0,.76A1,1,0,0,1,92.31,68.82Z" transform="translate(-48.24 -58.75)"/><path class="cls-6" d="M65.86,79.5a1,1,0,0,1-.37-1.93L88.6,68.24a1,1,0,0,1,.86,1.8l-.11,0L66.23,79.42A1,1,0,0,1,65.86,79.5Z" transform="translate(-48.24 -58.75)"/><path class="cls-6" d="M118,112.47a1,1,0,0,1-1-1V101a1,1,0,0,1,2,0v10.45a1,1,0,0,1-1,1Z" transform="translate(-48.24 -58.75)"/><path class="cls-6" d="M113.42,113.39a1,1,0,0,1-1-1v-6.14a1,1,0,0,1,2,0v6.14A1,1,0,0,1,113.42,113.39Z" transform="translate(-48.24 -58.75)"/><path class="cls-6" d="M118,98.71a1,1,0,0,1,0-2h0a1,1,0,0,1,0,2Z" transform="translate(-48.24 -58.75)"/></g></g></svg>