<svg width="316" height="53" viewBox="0 0 316 53" fill="none" xmlns="http://www.w3.org/2000/svg">
<path d="M7.28382 1.752C5.33982 1.752 4.61982 2.472 4.61982 4.416V25.224C4.61982 27.168 5.33982 27.888 7.28382 27.888H24.2038C26.2918 27.888 26.7958 28.392 26.7958 30.48V43.512C26.7958 45.6 26.2918 46.104 24.2038 46.104H17.7238C15.6358 46.104 15.1318 45.6 15.1318 43.512V36.744C15.1318 34.512 14.5558 34.152 12.6118 34.152H7.13982C5.19582 34.152 4.61982 34.512 4.61982 36.744V48.264C4.61982 50.208 5.33982 51 7.28382 51H28.6678C31.0438 51 31.6918 50.136 31.6918 48.264V25.656C31.6918 23.712 30.9718 22.992 29.0278 22.992H12.1078C10.0198 22.992 9.51582 22.488 9.51582 20.4V9.24C9.51582 7.152 10.0198 6.648 12.1078 6.648H24.2038C26.2918 6.648 26.7958 7.152 26.7958 9.24V13.92C26.7958 15.72 27.6598 16.656 29.3158 16.656C30.8998 16.656 31.6918 15.72 31.6918 13.92V4.416C31.6918 2.472 30.9718 1.752 29.0278 1.752H7.28382ZM47.8519 1.752C45.6919 1.752 45.0439 2.544 45.0439 4.56V24.792C45.0439 26.952 43.9639 27.6 42.3079 27.6C40.5799 27.6 39.4279 28.104 39.4279 30.696V48.408C39.4279 50.568 39.7879 51 42.1639 51H47.2039C49.4359 51 49.9399 50.64 49.9399 48.48V30.84C49.9399 28.464 50.5159 28.104 52.8199 28.104H64.1239C66.3559 28.104 66.8599 28.608 66.8599 30.768V48.264C66.8599 50.064 67.6519 51 69.3079 51C70.9639 51 71.7559 50.064 71.7559 48.264V4.488C71.7559 2.4 70.8919 1.752 68.9479 1.752H47.8519ZM64.1239 6.648C66.3559 6.648 66.8599 7.152 66.8599 9.24V20.616C66.8599 22.776 66.2839 23.208 64.0519 23.208H52.7479C50.3719 23.208 49.9399 22.704 49.9399 20.472V9.312C49.9399 7.152 50.3719 6.648 52.6759 6.648H64.1239ZM80.7317 1.752C78.7877 1.752 78.0677 2.472 78.0677 4.416V48.264C78.0677 49.92 79.0037 51 80.4437 51C82.0277 51 82.9637 49.92 82.9637 48.264V8.664C82.9637 8.016 83.2517 7.584 83.7557 7.584C84.1157 7.584 84.3317 7.8 84.7637 8.736L90.6677 21.696C91.1717 22.632 91.7477 24.072 93.4037 24.072C94.6277 24.072 95.7077 22.704 96.1397 21.984L103.628 8.448C103.772 8.16 104.204 7.296 104.708 7.296C105.068 7.296 105.212 7.512 105.212 8.304V48.408C105.212 50.64 105.788 51 107.732 51H113.204C115.076 51 115.724 50.64 115.724 48.408V4.416C115.724 2.472 115.004 1.752 113.06 1.752H103.916C102.404 1.752 101.612 2.04 100.82 3.48L94.8437 13.992C94.4837 14.64 94.1957 15.144 93.6197 15.144C92.9717 15.144 92.6837 14.352 92.3957 13.776L87.7157 3.48C87.2117 2.4 86.6357 1.752 85.1237 1.752H80.7317ZM91.3877 35.664C89.2997 35.664 88.7957 36.168 88.7957 38.256V48.408C88.7957 50.496 89.2997 51 91.3877 51H96.7157C98.8037 51 99.3077 50.496 99.3077 48.408V38.256C99.3077 36.168 98.8037 35.664 96.7157 35.664H91.3877ZM127.659 4.416V25.152C127.659 27.24 126.651 27.456 124.779 27.6C123.339 27.744 122.043 28.104 122.043 30.192V48.408C122.043 50.64 122.619 51 124.563 51H130.035C131.979 51 132.555 50.64 132.555 48.408V4.488C132.555 2.688 131.763 1.752 130.179 1.752C128.451 1.752 127.659 2.616 127.659 4.416ZM143.052 1.752C141.108 1.752 140.388 2.472 140.388 4.416V48.408C140.388 50.64 140.964 51 142.908 51H148.38C150.324 51 150.9 50.64 150.9 48.408V30.552C150.9 28.464 151.404 27.96 153.492 27.96H160.26C162.348 27.96 162.852 28.464 162.852 30.552V48.408C162.852 50.64 163.428 51 165.372 51H170.844C172.788 51 173.364 50.64 173.364 48.408V25.584C173.364 23.208 171.996 23.136 170.412 23.136C168.684 23.136 167.604 23.064 167.604 20.472V4.416C167.604 2.472 166.884 1.752 164.94 1.752H143.052ZM160.116 6.648C162.204 6.648 162.708 7.152 162.708 9.24V20.472C162.708 22.56 162.204 23.064 160.116 23.064H147.876C145.788 23.064 145.284 22.56 145.284 20.472V9.24C145.284 7.08 145.932 6.72 147.66 6.648H160.116ZM203.099 1.752C201.155 1.752 200.435 2.472 200.435 4.416V48.408C200.435 50.64 201.011 51 202.955 51H208.427C210.371 51 210.947 50.64 210.947 48.408V30.552C210.947 28.464 211.451 27.96 213.539 27.96H220.307C222.395 27.96 222.899 28.464 222.899 30.552V48.408C222.899 50.64 223.475 51 225.419 51H230.891C232.835 51 233.411 50.64 233.411 48.408V25.584C233.411 23.208 232.043 23.136 230.459 23.136C228.731 23.136 227.651 23.064 227.651 20.472V4.416C227.651 2.472 226.931 1.752 224.987 1.752H203.099ZM220.163 6.648C222.251 6.648 222.755 7.152 222.755 9.24V20.472C222.755 22.56 222.251 23.064 220.163 23.064H207.923C205.835 23.064 205.331 22.56 205.331 20.472V9.24C205.331 7.08 205.979 6.72 207.707 6.648H220.163ZM242.531 1.752C240.659 1.752 239.795 2.616 239.795 4.488V48.336C239.795 50.28 240.515 51 242.459 51H268.739C270.683 51 271.403 50.28 271.403 48.336V4.416C271.403 2.472 270.683 1.752 268.739 1.752H242.531ZM263.915 6.648C266.003 6.648 266.507 7.152 266.507 9.24V19.392C266.507 22.128 265.499 22.056 263.915 22.056C262.259 22.056 260.891 22.056 260.891 24.36V43.512C260.891 45.6 260.387 46.104 258.299 46.104H247.283C245.195 46.104 244.691 45.6 244.691 43.512V9.24C244.691 7.08 245.339 6.72 247.067 6.648H263.915ZM277.923 4.488V19.32C277.923 22.56 279.147 23.496 279.867 24.072L284.475 27.888C284.835 28.176 286.059 29.112 286.059 31.848V48.408C286.059 50.64 286.635 51 288.651 51H294.051C295.995 51 296.571 50.64 296.571 48.408V32.136C296.571 29.904 297.147 29.112 298.731 27.816L303.627 23.784C304.923 22.776 305.211 20.904 305.211 19.32V4.488C305.211 3.264 304.635 1.752 302.763 1.752C300.891 1.752 300.315 3.192 300.315 4.488V17.592C300.315 19.68 299.739 20.472 298.659 21.408L294.699 24.648C293.763 25.44 292.395 26.088 291.603 26.088C290.523 26.088 289.731 25.368 288.651 24.576L284.403 21.336C283.035 20.256 282.819 18.888 282.819 17.592V4.488C282.819 3.264 282.243 1.752 280.371 1.752C278.499 1.752 277.923 3.192 277.923 4.488Z" fill="#3666AE" fill-opacity="0.8"/>
<g style="mix-blend-mode:screen">
<path d="M13.4931 1.752C11.5491 1.752 10.8291 2.472 10.8291 4.416V25.224C10.8291 27.168 11.5491 27.888 13.4931 27.888H30.4131C32.5011 27.888 33.0051 28.392 33.0051 30.48V43.512C33.0051 45.6 32.5011 46.104 30.4131 46.104H23.9331C21.8451 46.104 21.3411 45.6 21.3411 43.512V36.744C21.3411 34.512 20.7651 34.152 18.8211 34.152H13.3491C11.4051 34.152 10.8291 34.512 10.8291 36.744V48.264C10.8291 50.208 11.5491 51 13.4931 51H34.8771C37.2531 51 37.9011 50.136 37.9011 48.264V25.656C37.9011 23.712 37.1811 22.992 35.2371 22.992H18.3171C16.2291 22.992 15.7251 22.488 15.7251 20.4V9.24C15.7251 7.152 16.2291 6.648 18.3171 6.648H30.4131C32.5011 6.648 33.0051 7.152 33.0051 9.24V13.92C33.0051 15.72 33.8691 16.656 35.5251 16.656C37.1091 16.656 37.9011 15.72 37.9011 13.92V4.416C37.9011 2.472 37.1811 1.752 35.2371 1.752H13.4931ZM54.0612 1.752C51.9012 1.752 51.2532 2.544 51.2532 4.56V24.792C51.2532 26.952 50.1732 27.6 48.5172 27.6C46.7892 27.6 45.6372 28.104 45.6372 30.696V48.408C45.6372 50.568 45.9972 51 48.3732 51H53.4132C55.6452 51 56.1492 50.64 56.1492 48.48V30.84C56.1492 28.464 56.7252 28.104 59.0292 28.104H70.3332C72.5652 28.104 73.0692 28.608 73.0692 30.768V48.264C73.0692 50.064 73.8612 51 75.5172 51C77.1732 51 77.9652 50.064 77.9652 48.264V4.488C77.9652 2.4 77.1012 1.752 75.1572 1.752H54.0612ZM70.3332 6.648C72.5652 6.648 73.0692 7.152 73.0692 9.24V20.616C73.0692 22.776 72.4932 23.208 70.2612 23.208H58.9572C56.5812 23.208 56.1492 22.704 56.1492 20.472V9.312C56.1492 7.152 56.5812 6.648 58.8852 6.648H70.3332ZM86.941 1.752C84.997 1.752 84.277 2.472 84.277 4.416V48.264C84.277 49.92 85.213 51 86.653 51C88.237 51 89.173 49.92 89.173 48.264V8.664C89.173 8.016 89.461 7.584 89.965 7.584C90.325 7.584 90.541 7.8 90.973 8.736L96.877 21.696C97.381 22.632 97.957 24.072 99.613 24.072C100.837 24.072 101.917 22.704 102.349 21.984L109.837 8.448C109.981 8.16 110.413 7.296 110.917 7.296C111.277 7.296 111.421 7.512 111.421 8.304V48.408C111.421 50.64 111.997 51 113.941 51H119.413C121.285 51 121.933 50.64 121.933 48.408V4.416C121.933 2.472 121.213 1.752 119.269 1.752H110.125C108.613 1.752 107.821 2.04 107.029 3.48L101.053 13.992C100.693 14.64 100.405 15.144 99.829 15.144C99.181 15.144 98.893 14.352 98.605 13.776L93.925 3.48C93.421 2.4 92.845 1.752 91.333 1.752H86.941ZM97.597 35.664C95.509 35.664 95.005 36.168 95.005 38.256V48.408C95.005 50.496 95.509 51 97.597 51H102.925C105.013 51 105.517 50.496 105.517 48.408V38.256C105.517 36.168 105.013 35.664 102.925 35.664H97.597ZM133.869 4.416V25.152C133.869 27.24 132.861 27.456 130.989 27.6C129.549 27.744 128.253 28.104 128.253 30.192V48.408C128.253 50.64 128.829 51 130.773 51H136.245C138.189 51 138.765 50.64 138.765 48.408V4.488C138.765 2.688 137.973 1.752 136.389 1.752C134.661 1.752 133.869 2.616 133.869 4.416ZM149.261 1.752C147.317 1.752 146.597 2.472 146.597 4.416V48.408C146.597 50.64 147.173 51 149.117 51H154.589C156.533 51 157.109 50.64 157.109 48.408V30.552C157.109 28.464 157.613 27.96 159.701 27.96H166.469C168.557 27.96 169.061 28.464 169.061 30.552V48.408C169.061 50.64 169.637 51 171.581 51H177.053C178.997 51 179.573 50.64 179.573 48.408V25.584C179.573 23.208 178.205 23.136 176.621 23.136C174.893 23.136 173.813 23.064 173.813 20.472V4.416C173.813 2.472 173.093 1.752 171.149 1.752H149.261ZM166.325 6.648C168.413 6.648 168.917 7.152 168.917 9.24V20.472C168.917 22.56 168.413 23.064 166.325 23.064H154.085C151.997 23.064 151.493 22.56 151.493 20.472V9.24C151.493 7.08 152.141 6.72 153.869 6.648H166.325ZM209.308 1.752C207.364 1.752 206.644 2.472 206.644 4.416V48.408C206.644 50.64 207.22 51 209.164 51H214.636C216.58 51 217.156 50.64 217.156 48.408V30.552C217.156 28.464 217.66 27.96 219.748 27.96H226.516C228.604 27.96 229.108 28.464 229.108 30.552V48.408C229.108 50.64 229.684 51 231.628 51H237.1C239.044 51 239.62 50.64 239.62 48.408V25.584C239.62 23.208 238.252 23.136 236.668 23.136C234.94 23.136 233.86 23.064 233.86 20.472V4.416C233.86 2.472 233.14 1.752 231.196 1.752H209.308ZM226.372 6.648C228.46 6.648 228.964 7.152 228.964 9.24V20.472C228.964 22.56 228.46 23.064 226.372 23.064H214.132C212.044 23.064 211.54 22.56 211.54 20.472V9.24C211.54 7.08 212.188 6.72 213.916 6.648H226.372ZM248.74 1.752C246.868 1.752 246.004 2.616 246.004 4.488V48.336C246.004 50.28 246.724 51 248.668 51H274.948C276.892 51 277.612 50.28 277.612 48.336V4.416C277.612 2.472 276.892 1.752 274.948 1.752H248.74ZM270.124 6.648C272.212 6.648 272.716 7.152 272.716 9.24V19.392C272.716 22.128 271.708 22.056 270.124 22.056C268.468 22.056 267.1 22.056 267.1 24.36V43.512C267.1 45.6 266.596 46.104 264.508 46.104H253.492C251.404 46.104 250.9 45.6 250.9 43.512V9.24C250.9 7.08 251.548 6.72 253.276 6.648H270.124ZM284.132 4.488V19.32C284.132 22.56 285.356 23.496 286.076 24.072L290.684 27.888C291.044 28.176 292.268 29.112 292.268 31.848V48.408C292.268 50.64 292.844 51 294.86 51H300.26C302.204 51 302.78 50.64 302.78 48.408V32.136C302.78 29.904 303.356 29.112 304.94 27.816L309.836 23.784C311.132 22.776 311.42 20.904 311.42 19.32V4.488C311.42 3.264 310.844 1.752 308.972 1.752C307.1 1.752 306.524 3.192 306.524 4.488V17.592C306.524 19.68 305.948 20.472 304.868 21.408L300.908 24.648C299.972 25.44 298.604 26.088 297.812 26.088C296.732 26.088 295.94 25.368 294.86 24.576L290.612 21.336C289.244 20.256 289.028 18.888 289.028 17.592V4.488C289.028 3.264 288.452 1.752 286.58 1.752C284.708 1.752 284.132 3.192 284.132 4.488Z" fill="#9D3957" fill-opacity="0.7"/>
</g>
<path d="M10.5906 1.752C8.64659 1.752 7.92659 2.472 7.92659 4.416V25.224C7.92659 27.168 8.64659 27.888 10.5906 27.888H27.5106C29.5986 27.888 30.1026 28.392 30.1026 30.48V43.512C30.1026 45.6 29.5986 46.104 27.5106 46.104H21.0306C18.9426 46.104 18.4386 45.6 18.4386 43.512V36.744C18.4386 34.512 17.8626 34.152 15.9186 34.152H10.4466C8.50259 34.152 7.92659 34.512 7.92659 36.744V48.264C7.92659 50.208 8.64659 51 10.5906 51H31.9746C34.3506 51 34.9986 50.136 34.9986 48.264V25.656C34.9986 23.712 34.2786 22.992 32.3346 22.992H15.4146C13.3266 22.992 12.8226 22.488 12.8226 20.4V9.24C12.8226 7.152 13.3266 6.648 15.4146 6.648H27.5106C29.5986 6.648 30.1026 7.152 30.1026 9.24V13.92C30.1026 15.72 30.9666 16.656 32.6226 16.656C34.2066 16.656 34.9986 15.72 34.9986 13.92V4.416C34.9986 2.472 34.2786 1.752 32.3346 1.752H10.5906ZM51.1586 1.752C48.9986 1.752 48.3506 2.544 48.3506 4.56V24.792C48.3506 26.952 47.2706 27.6 45.6146 27.6C43.8866 27.6 42.7346 28.104 42.7346 30.696V48.408C42.7346 50.568 43.0946 51 45.4706 51H50.5106C52.7426 51 53.2466 50.64 53.2466 48.48V30.84C53.2466 28.464 53.8226 28.104 56.1266 28.104H67.4307C69.6627 28.104 70.1667 28.608 70.1667 30.768V48.264C70.1667 50.064 70.9586 51 72.6147 51C74.2707 51 75.0627 50.064 75.0627 48.264V4.488C75.0627 2.4 74.1987 1.752 72.2547 1.752H51.1586ZM67.4307 6.648C69.6627 6.648 70.1667 7.152 70.1667 9.24V20.616C70.1667 22.776 69.5907 23.208 67.3587 23.208H56.0546C53.6787 23.208 53.2466 22.704 53.2466 20.472V9.312C53.2466 7.152 53.6787 6.648 55.9826 6.648H67.4307ZM84.0385 1.752C82.0945 1.752 81.3745 2.472 81.3745 4.416V48.264C81.3745 49.92 82.3105 51 83.7505 51C85.3345 51 86.2705 49.92 86.2705 48.264V8.664C86.2705 8.016 86.5585 7.584 87.0625 7.584C87.4225 7.584 87.6385 7.8 88.0705 8.736L93.9745 21.696C94.4785 22.632 95.0545 24.072 96.7105 24.072C97.9345 24.072 99.0145 22.704 99.4465 21.984L106.934 8.448C107.078 8.16 107.51 7.296 108.014 7.296C108.374 7.296 108.518 7.512 108.518 8.304V48.408C108.518 50.64 109.094 51 111.038 51H116.51C118.382 51 119.03 50.64 119.03 48.408V4.416C119.03 2.472 118.31 1.752 116.366 1.752H107.222C105.71 1.752 104.918 2.04 104.126 3.48L98.1505 13.992C97.7905 14.64 97.5025 15.144 96.9265 15.144C96.2785 15.144 95.9905 14.352 95.7025 13.776L91.0225 3.48C90.5185 2.4 89.9425 1.752 88.4305 1.752H84.0385ZM94.6945 35.664C92.6065 35.664 92.1025 36.168 92.1025 38.256V48.408C92.1025 50.496 92.6065 51 94.6945 51H100.022C102.11 51 102.614 50.496 102.614 48.408V38.256C102.614 36.168 102.11 35.664 100.022 35.664H94.6945ZM130.966 4.416V25.152C130.966 27.24 129.958 27.456 128.086 27.6C126.646 27.744 125.35 28.104 125.35 30.192V48.408C125.35 50.64 125.926 51 127.87 51H133.342C135.286 51 135.862 50.64 135.862 48.408V4.488C135.862 2.688 135.07 1.752 133.486 1.752C131.758 1.752 130.966 2.616 130.966 4.416ZM146.359 1.752C144.415 1.752 143.695 2.472 143.695 4.416V48.408C143.695 50.64 144.271 51 146.215 51H151.687C153.631 51 154.207 50.64 154.207 48.408V30.552C154.207 28.464 154.711 27.96 156.799 27.96H163.567C165.655 27.96 166.159 28.464 166.159 30.552V48.408C166.159 50.64 166.735 51 168.679 51H174.151C176.095 51 176.671 50.64 176.671 48.408V25.584C176.671 23.208 175.303 23.136 173.719 23.136C171.991 23.136 170.911 23.064 170.911 20.472V4.416C170.911 2.472 170.191 1.752 168.247 1.752H146.359ZM163.423 6.648C165.511 6.648 166.015 7.152 166.015 9.24V20.472C166.015 22.56 165.511 23.064 163.423 23.064H151.183C149.095 23.064 148.591 22.56 148.591 20.472V9.24C148.591 7.08 149.239 6.72 150.967 6.648H163.423ZM206.406 1.752C204.462 1.752 203.742 2.472 203.742 4.416V48.408C203.742 50.64 204.318 51 206.262 51H211.734C213.678 51 214.254 50.64 214.254 48.408V30.552C214.254 28.464 214.758 27.96 216.846 27.96H223.614C225.702 27.96 226.206 28.464 226.206 30.552V48.408C226.206 50.64 226.782 51 228.726 51H234.198C236.142 51 236.718 50.64 236.718 48.408V25.584C236.718 23.208 235.35 23.136 233.766 23.136C232.038 23.136 230.958 23.064 230.958 20.472V4.416C230.958 2.472 230.238 1.752 228.294 1.752H206.406ZM223.47 6.648C225.558 6.648 226.062 7.152 226.062 9.24V20.472C226.062 22.56 225.558 23.064 223.47 23.064H211.23C209.142 23.064 208.638 22.56 208.638 20.472V9.24C208.638 7.08 209.286 6.72 211.014 6.648H223.47ZM245.838 1.752C243.966 1.752 243.102 2.616 243.102 4.488V48.336C243.102 50.28 243.822 51 245.766 51H272.046C273.99 51 274.71 50.28 274.71 48.336V4.416C274.71 2.472 273.99 1.752 272.046 1.752H245.838ZM267.222 6.648C269.31 6.648 269.814 7.152 269.814 9.24V19.392C269.814 22.128 268.806 22.056 267.222 22.056C265.566 22.056 264.198 22.056 264.198 24.36V43.512C264.198 45.6 263.694 46.104 261.606 46.104H250.59C248.502 46.104 247.998 45.6 247.998 43.512V9.24C247.998 7.08 248.646 6.72 250.374 6.648H267.222ZM281.23 4.488V19.32C281.23 22.56 282.454 23.496 283.174 24.072L287.782 27.888C288.142 28.176 289.366 29.112 289.366 31.848V48.408C289.366 50.64 289.942 51 291.958 51H297.358C299.302 51 299.878 50.64 299.878 48.408V32.136C299.878 29.904 300.454 29.112 302.038 27.816L306.934 23.784C308.23 22.776 308.518 20.904 308.518 19.32V4.488C308.518 3.264 307.942 1.752 306.07 1.752C304.198 1.752 303.622 3.192 303.622 4.488V17.592C303.622 19.68 303.046 20.472 301.966 21.408L298.006 24.648C297.07 25.44 295.702 26.088 294.91 26.088C293.83 26.088 293.038 25.368 291.958 24.576L287.71 21.336C286.342 20.256 286.126 18.888 286.126 17.592V4.488C286.126 3.264 285.55 1.752 283.678 1.752C281.806 1.752 281.23 3.192 281.23 4.488Z" fill="white"/>
</svg>
