<svg width="95" height="75" viewBox="0 0 95 75" fill="none" xmlns="http://www.w3.org/2000/svg">
<g clip-path="url(#clip0)">
<path d="M2.07974 11.752C0.279736 11.752 -0.152264 12.112 -0.152264 13.984V18.016C-0.152264 19.816 0.207736 20.248 1.93574 20.248H3.73574C4.81574 20.248 5.10374 20.752 5.10374 21.688V36.16C5.10374 38.464 4.31174 39.184 2.87174 39.112C0.639736 39.04 -0.152264 39.328 -0.152264 41.776V58.12C-0.152264 60.496 0.351736 61 2.72774 61H18.6397C21.0157 61 21.5197 60.496 21.5197 58.12V41.992C21.5197 39.616 21.0157 39.112 18.6397 39.112H14.3197C11.4397 39.112 11.0077 38.536 11.0077 36.016V14.704C11.0077 12.4 10.3597 11.752 8.05574 11.752H2.07974ZM40.1435 1.024V74.248H43.6715V1.024H40.1435ZM59.5121 11.752C57.6401 11.752 56.7761 12.616 56.7761 14.488V58.336C56.7761 60.28 57.4961 61 59.4401 61H85.7201C87.6641 61 88.3841 60.28 88.3841 58.336V14.416C88.3841 12.472 87.6641 11.752 85.7201 11.752H59.5121ZM80.8961 16.648C82.9841 16.648 83.4881 17.152 83.4881 19.24V29.392C83.4881 32.128 82.4801 32.056 80.8961 32.056C79.2401 32.056 77.8721 32.056 77.8721 34.36V53.512C77.8721 55.6 77.3681 56.104 75.2801 56.104H64.2641C62.1761 56.104 61.6721 55.6 61.6721 53.512V19.24C61.6721 17.08 62.3201 16.72 64.0481 16.648H80.8961Z" fill="#3666AE" fill-opacity="0.6"/>
<g style="mix-blend-mode:screen">
<path d="M8.93594 11.752C7.13594 11.752 6.70394 12.112 6.70394 13.984V18.016C6.70394 19.816 7.06394 20.248 8.79194 20.248H10.5919C11.6719 20.248 11.9599 20.752 11.9599 21.688V36.16C11.9599 38.464 11.1679 39.184 9.72794 39.112C7.49594 39.04 6.70394 39.328 6.70394 41.776V58.12C6.70394 60.496 7.20794 61 9.58394 61H25.4959C27.8719 61 28.3759 60.496 28.3759 58.12V41.992C28.3759 39.616 27.8719 39.112 25.4959 39.112H21.1759C18.2959 39.112 17.8639 38.536 17.8639 36.016V14.704C17.8639 12.4 17.2159 11.752 14.9119 11.752H8.93594ZM46.9997 1.024V74.248H50.5278V1.024H46.9997ZM66.3683 11.752C64.4963 11.752 63.6323 12.616 63.6323 14.488V58.336C63.6323 60.28 64.3523 61 66.2963 61H92.5763C94.5203 61 95.2403 60.28 95.2403 58.336V14.416C95.2403 12.472 94.5203 11.752 92.5763 11.752H66.3683ZM87.7523 16.648C89.8403 16.648 90.3443 17.152 90.3443 19.24V29.392C90.3443 32.128 89.3363 32.056 87.7523 32.056C86.0963 32.056 84.7283 32.056 84.7283 34.36V53.512C84.7283 55.6 84.2243 56.104 82.1363 56.104H71.1203C69.0323 56.104 68.5283 55.6 68.5283 53.512V19.24C68.5283 17.08 69.1763 16.72 70.9043 16.648H87.7523Z" fill="#9D3957" fill-opacity="0.7"/>
</g>
<path d="M5.77224 11.752C3.97224 11.752 3.54024 12.112 3.54024 13.984V18.016C3.54024 19.816 3.90024 20.248 5.62824 20.248H7.42824C8.50824 20.248 8.79624 20.752 8.79624 21.688V36.16C8.79624 38.464 8.00424 39.184 6.56424 39.112C4.33224 39.04 3.54024 39.328 3.54024 41.776V58.12C3.54024 60.496 4.04424 61 6.42024 61H22.3322C24.7082 61 25.2122 60.496 25.2122 58.12V41.992C25.2122 39.616 24.7082 39.112 22.3322 39.112H18.0122C15.1322 39.112 14.7002 38.536 14.7002 36.016V14.704C14.7002 12.4 14.0522 11.752 11.7482 11.752H5.77224ZM43.8361 1.024V74.248H47.3641V1.024H43.8361ZM63.2046 11.752C61.3326 11.752 60.4686 12.616 60.4686 14.488V58.336C60.4686 60.28 61.1886 61 63.1326 61H89.4126C91.3566 61 92.0766 60.28 92.0766 58.336V14.416C92.0766 12.472 91.3566 11.752 89.4126 11.752H63.2046ZM84.5886 16.648C86.6766 16.648 87.1806 17.152 87.1806 19.24V29.392C87.1806 32.128 86.1726 32.056 84.5886 32.056C82.9326 32.056 81.5646 32.056 81.5646 34.36V53.512C81.5646 55.6 81.0606 56.104 78.9726 56.104H67.9566C65.8686 56.104 65.3646 55.6 65.3646 53.512V19.24C65.3646 17.08 66.0126 16.72 67.7406 16.648H84.5886Z" fill="white"/>
</g>
<defs>
<clipPath id="clip0">
<rect width="95" height="75" fill="white"/>
</clipPath>
</defs>
</svg>
