<svg width="99" height="115" viewBox="0 0 99 115" fill="none" xmlns="http://www.w3.org/2000/svg">
<path d="M4.04847 11.752C2.24847 11.752 1.81647 12.112 1.81647 13.984V18.016C1.81647 19.816 2.17647 20.248 3.90447 20.248H5.70447C6.78447 20.248 7.07247 20.752 7.07247 21.688V36.16C7.07247 38.464 6.28047 39.184 4.84047 39.112C2.60847 39.04 1.81647 39.328 1.81647 41.776V58.12C1.81647 60.496 2.32047 61 4.69647 61H23.6085C25.9845 61 26.4885 60.496 26.4885 58.12V41.992C26.4885 39.616 25.9845 39.112 23.6085 39.112H19.2885C16.4085 39.112 15.9765 38.536 15.9765 36.016V14.704C15.9765 12.4 15.3285 11.752 13.0245 11.752H4.04847Z" fill="#FFF500"/>
<g style="mix-blend-mode:multiply">
<path d="M14.9047 11.752H20.8807C23.1847 11.752 23.8327 12.4 23.8327 14.704V36.016C23.8327 38.536 24.2647 39.112 27.1447 39.112H31.4647C33.8407 39.112 34.3447 39.616 34.3447 41.992V58.12C34.3447 60.496 33.8407 61 31.4647 61H15.5527C13.1767 61 12.6727 60.496 12.6727 58.12V41.776C12.6727 39.328 13.4647 39.04 15.6967 39.112C17.1367 39.184 17.9287 38.464 17.9287 36.16V21.688C17.9287 20.752 17.6407 20.248 16.5607 20.248H14.7607C13.0327 20.248 12.6727 19.816 12.6727 18.016V13.984C12.6727 12.112 13.1047 11.752 14.9047 11.752Z" fill="#6DA8FF"/>
</g>
<path d="M10.741 11.752H16.717C19.021 11.752 19.669 12.4 19.669 14.704V36.016C19.669 38.536 20.101 39.112 22.981 39.112H27.301C29.677 39.112 30.181 39.616 30.181 41.992V58.12C30.181 60.496 29.677 61 27.301 61H11.389C9.01297 61 8.50897 60.496 8.50897 58.12V41.776C8.50897 39.328 9.30097 39.04 11.533 39.112C12.973 39.184 13.765 38.464 13.765 36.16V21.688C13.765 20.752 13.477 20.248 12.397 20.248H10.597C8.86897 20.248 8.50897 19.816 8.50897 18.016V13.984C8.50897 12.112 8.94097 11.752 10.741 11.752Z" fill="black"/>
<path fill-rule="evenodd" clip-rule="evenodd" d="M83.4439 11.752H57.2359C55.3639 11.752 54.4999 12.616 54.4999 14.488V58.336C54.4999 60.28 55.2199 61 57.1639 61H83.4439C85.3879 61 86.1079 60.28 86.1079 58.336V14.416C86.1079 12.472 85.3879 11.752 83.4439 11.752ZM75.6645 39.0562C75.8418 39.0561 75.951 39.0561 75.9664 39.056C77.3494 39.051 78.2119 38.9228 78.2119 36.392V21.24C78.2119 19.152 77.7079 18.648 75.6199 18.648H64.7719C63.0439 18.72 62.3959 19.08 62.3959 21.24V53.512C62.3959 55.6 62.8999 56.104 64.9879 56.104H65.0039C67.0919 56.104 67.5959 55.6 67.5959 53.512V41.36C67.5959 39.056 68.9639 39.056 70.6199 39.056L70.8707 39.056C71.3401 39.0561 72.3918 39.0562 73.4188 39.0562C73.4853 39.056 73.5524 39.056 73.6199 39.056L73.8707 39.056C74.2245 39.0561 74.909 39.0561 75.6645 39.0562Z" fill="#FFF500"/>
<g style="mix-blend-mode:multiply">
<path d="M68.2359 11.752L91.4439 11.752C93.3879 11.752 94.1079 12.472 94.1079 14.416V58.336C94.1079 60.28 93.3879 61 91.4439 61H68.1639C66.2199 61 65.4999 60.28 65.4999 58.336V14.488C65.4999 12.616 66.3639 11.752 68.2359 11.752ZM86.6199 18.648L72.7719 18.648C71.0439 18.72 70.3959 19.08 70.3959 21.24V53.512C70.3959 55.6 70.8999 56.104 72.9879 56.104H76.0039C78.0919 56.104 78.5959 55.6 78.5959 53.512V41.36C78.5959 39.056 79.9639 39.056 81.6199 39.056C81.7387 39.056 86.8542 39.0564 86.9664 39.056C88.3494 39.051 89.2119 38.9228 89.2119 36.392V21.24C89.2119 19.152 88.7079 18.648 86.6199 18.648Z" fill="#6DA8FF"/>
</g>
<path d="M64.2359 11.752L87.4439 11.752C89.3879 11.752 90.1079 12.472 90.1079 14.416V58.336C90.1079 60.28 89.3879 61 87.4439 61H64.1639C62.2199 61 61.4999 60.28 61.4999 58.336L61.4999 14.488C61.4999 12.616 62.3639 11.752 64.2359 11.752ZM82.6199 18.648L68.7719 18.648C67.0439 18.72 66.3959 19.08 66.3959 21.24V53.512C66.3959 55.6 66.8999 56.104 68.9879 56.104H72.0039C74.0919 56.104 74.5959 55.6 74.5959 53.512V41.36C74.5959 39.056 75.9639 39.056 77.6199 39.056C77.7387 39.056 82.8542 39.0564 82.9664 39.056C84.3494 39.051 85.2119 38.9228 85.2119 36.392V21.24C85.2119 19.152 84.7079 18.648 82.6199 18.648Z" fill="black"/>
<path d="M47 9V108H54V9H47Z" fill="#6DA8FF"/>
<path d="M36 9V108H46V9H36Z" fill="#FFF500"/>
<rect x="44" y="9" width="6" height="99" fill="black"/>
</svg>
