<svg width="316" height="53" viewBox="0 0 316 53" fill="none" xmlns="http://www.w3.org/2000/svg">
<path d="M7.02069 1.752C5.07669 1.752 4.35669 2.472 4.35669 4.416V25.224C4.35669 27.168 5.07669 27.888 7.02069 27.888H23.9407C26.0287 27.888 26.5327 28.392 26.5327 30.48V43.512C26.5327 45.6 26.0287 46.104 23.9407 46.104H17.4607C15.3727 46.104 14.8687 45.6 14.8687 43.512V36.744C14.8687 34.512 14.2927 34.152 12.3487 34.152H6.87669C4.93269 34.152 4.35669 34.512 4.35669 36.744V48.264C4.35669 50.208 5.07669 51 7.02069 51H28.4047C30.7807 51 31.4287 50.136 31.4287 48.264V25.656C31.4287 23.712 30.7087 22.992 28.7647 22.992H11.8447C9.75669 22.992 9.25269 22.488 9.25269 20.4V9.24C9.25269 7.152 9.75669 6.648 11.8447 6.648H23.9407C26.0287 6.648 26.5327 7.152 26.5327 9.24V13.92C26.5327 15.72 27.3967 16.656 29.0527 16.656C30.6367 16.656 31.4287 15.72 31.4287 13.92V4.416C31.4287 2.472 30.7087 1.752 28.7647 1.752H7.02069ZM47.5887 1.752C45.4287 1.752 44.7807 2.544 44.7807 4.56V24.792C44.7807 26.952 43.7007 27.6 42.0447 27.6C40.3167 27.6 39.1647 28.104 39.1647 30.696V48.408C39.1647 50.568 39.5247 51 41.9007 51H46.9407C49.1727 51 49.6767 50.64 49.6767 48.48V30.84C49.6767 28.464 50.2527 28.104 52.5567 28.104H63.8607C66.0928 28.104 66.5968 28.608 66.5968 30.768V48.264C66.5968 50.064 67.3887 51 69.0447 51C70.7007 51 71.4928 50.064 71.4928 48.264V4.488C71.4928 2.4 70.6288 1.752 68.6847 1.752H47.5887ZM63.8607 6.648C66.0928 6.648 66.5968 7.152 66.5968 9.24V20.616C66.5968 22.776 66.0207 23.208 63.7888 23.208H52.4847C50.1087 23.208 49.6767 22.704 49.6767 20.472V9.312C49.6767 7.152 50.1087 6.648 52.4127 6.648H63.8607ZM80.4686 1.752C78.5246 1.752 77.8046 2.472 77.8046 4.416V48.264C77.8046 49.92 78.7406 51 80.1806 51C81.7646 51 82.7006 49.92 82.7006 48.264V8.664C82.7006 8.016 82.9886 7.584 83.4926 7.584C83.8526 7.584 84.0686 7.8 84.5006 8.736L90.4046 21.696C90.9086 22.632 91.4846 24.072 93.1406 24.072C94.3646 24.072 95.4446 22.704 95.8766 21.984L103.365 8.448C103.509 8.16 103.941 7.296 104.445 7.296C104.805 7.296 104.949 7.512 104.949 8.304V48.408C104.949 50.64 105.525 51 107.469 51H112.941C114.813 51 115.461 50.64 115.461 48.408V4.416C115.461 2.472 114.741 1.752 112.797 1.752H103.653C102.141 1.752 101.349 2.04 100.557 3.48L94.5806 13.992C94.2206 14.64 93.9326 15.144 93.3566 15.144C92.7086 15.144 92.4206 14.352 92.1326 13.776L87.4526 3.48C86.9486 2.4 86.3726 1.752 84.8606 1.752H80.4686ZM91.1246 35.664C89.0366 35.664 88.5326 36.168 88.5326 38.256V48.408C88.5326 50.496 89.0366 51 91.1246 51H96.4526C98.5406 51 99.0446 50.496 99.0446 48.408V38.256C99.0446 36.168 98.5406 35.664 96.4526 35.664H91.1246ZM127.396 4.416V25.152C127.396 27.24 126.388 27.456 124.516 27.6C123.076 27.744 121.78 28.104 121.78 30.192V48.408C121.78 50.64 122.356 51 124.3 51H129.772C131.716 51 132.292 50.64 132.292 48.408V4.488C132.292 2.688 131.5 1.752 129.916 1.752C128.188 1.752 127.396 2.616 127.396 4.416ZM142.789 1.752C140.845 1.752 140.125 2.472 140.125 4.416V48.408C140.125 50.64 140.701 51 142.645 51H148.117C150.061 51 150.637 50.64 150.637 48.408V30.552C150.637 28.464 151.141 27.96 153.229 27.96H159.997C162.085 27.96 162.589 28.464 162.589 30.552V48.408C162.589 50.64 163.165 51 165.109 51H170.581C172.525 51 173.101 50.64 173.101 48.408V25.584C173.101 23.208 171.733 23.136 170.149 23.136C168.421 23.136 167.341 23.064 167.341 20.472V4.416C167.341 2.472 166.621 1.752 164.677 1.752H142.789ZM159.853 6.648C161.941 6.648 162.445 7.152 162.445 9.24V20.472C162.445 22.56 161.941 23.064 159.853 23.064H147.613C145.525 23.064 145.021 22.56 145.021 20.472V9.24C145.021 7.08 145.669 6.72 147.397 6.648H159.853ZM202.836 1.752C200.892 1.752 200.172 2.472 200.172 4.416V48.408C200.172 50.64 200.748 51 202.692 51H208.164C210.108 51 210.684 50.64 210.684 48.408V30.552C210.684 28.464 211.188 27.96 213.276 27.96H220.044C222.132 27.96 222.636 28.464 222.636 30.552V48.408C222.636 50.64 223.212 51 225.156 51H230.628C232.572 51 233.148 50.64 233.148 48.408V25.584C233.148 23.208 231.78 23.136 230.196 23.136C228.468 23.136 227.388 23.064 227.388 20.472V4.416C227.388 2.472 226.668 1.752 224.724 1.752H202.836ZM219.9 6.648C221.988 6.648 222.492 7.152 222.492 9.24V20.472C222.492 22.56 221.988 23.064 219.9 23.064H207.66C205.572 23.064 205.068 22.56 205.068 20.472V9.24C205.068 7.08 205.716 6.72 207.444 6.648H219.9ZM242.268 1.752C240.396 1.752 239.532 2.616 239.532 4.488V48.336C239.532 50.28 240.252 51 242.196 51H268.476C270.42 51 271.14 50.28 271.14 48.336V4.416C271.14 2.472 270.42 1.752 268.476 1.752H242.268ZM263.652 6.648C265.74 6.648 266.244 7.152 266.244 9.24V19.392C266.244 22.128 265.236 22.056 263.652 22.056C261.996 22.056 260.628 22.056 260.628 24.36V43.512C260.628 45.6 260.124 46.104 258.036 46.104H247.02C244.932 46.104 244.428 45.6 244.428 43.512V9.24C244.428 7.08 245.076 6.72 246.804 6.648H263.652ZM277.66 4.488V19.32C277.66 22.56 278.884 23.496 279.604 24.072L284.212 27.888C284.572 28.176 285.796 29.112 285.796 31.848V48.408C285.796 50.64 286.372 51 288.388 51H293.788C295.732 51 296.308 50.64 296.308 48.408V32.136C296.308 29.904 296.884 29.112 298.468 27.816L303.364 23.784C304.66 22.776 304.948 20.904 304.948 19.32V4.488C304.948 3.264 304.372 1.752 302.5 1.752C300.628 1.752 300.052 3.192 300.052 4.488V17.592C300.052 19.68 299.476 20.472 298.396 21.408L294.436 24.648C293.5 25.44 292.132 26.088 291.34 26.088C290.26 26.088 289.468 25.368 288.388 24.576L284.14 21.336C282.772 20.256 282.556 18.888 282.556 17.592V4.488C282.556 3.264 281.98 1.752 280.108 1.752C278.236 1.752 277.66 3.192 277.66 4.488Z" fill="#FFF500"/>
<g style="mix-blend-mode:multiply">
<path d="M13.7562 1.752C11.8122 1.752 11.0922 2.472 11.0922 4.416V25.224C11.0922 27.168 11.8122 27.888 13.7562 27.888H30.6762C32.7642 27.888 33.2682 28.392 33.2682 30.48V43.512C33.2682 45.6 32.7642 46.104 30.6762 46.104H24.1962C22.1082 46.104 21.6042 45.6 21.6042 43.512V36.744C21.6042 34.512 21.0282 34.152 19.0842 34.152H13.6122C11.6682 34.152 11.0922 34.512 11.0922 36.744V48.264C11.0922 50.208 11.8122 51 13.7562 51H35.1402C37.5162 51 38.1642 50.136 38.1642 48.264V25.656C38.1642 23.712 37.4442 22.992 35.5002 22.992H18.5802C16.4922 22.992 15.9882 22.488 15.9882 20.4V9.24C15.9882 7.152 16.4922 6.648 18.5802 6.648H30.6762C32.7642 6.648 33.2682 7.152 33.2682 9.24V13.92C33.2682 15.72 34.1322 16.656 35.7882 16.656C37.3722 16.656 38.1642 15.72 38.1642 13.92V4.416C38.1642 2.472 37.4442 1.752 35.5002 1.752H13.7562ZM54.3243 1.752C52.1643 1.752 51.5163 2.544 51.5163 4.56V24.792C51.5163 26.952 50.4363 27.6 48.7803 27.6C47.0523 27.6 45.9003 28.104 45.9003 30.696V48.408C45.9003 50.568 46.2603 51 48.6363 51H53.6763C55.9083 51 56.4123 50.64 56.4123 48.48V30.84C56.4123 28.464 56.9883 28.104 59.2923 28.104H70.5963C72.8283 28.104 73.3323 28.608 73.3323 30.768V48.264C73.3323 50.064 74.1243 51 75.7803 51C77.4363 51 78.2283 50.064 78.2283 48.264V4.488C78.2283 2.4 77.3643 1.752 75.4203 1.752H54.3243ZM70.5963 6.648C72.8283 6.648 73.3323 7.152 73.3323 9.24V20.616C73.3323 22.776 72.7563 23.208 70.5243 23.208H59.2203C56.8443 23.208 56.4123 22.704 56.4123 20.472V9.312C56.4123 7.152 56.8443 6.648 59.1483 6.648H70.5963ZM87.2041 1.752C85.2601 1.752 84.5401 2.472 84.5401 4.416V48.264C84.5401 49.92 85.4761 51 86.9161 51C88.5001 51 89.4361 49.92 89.4361 48.264V8.664C89.4361 8.016 89.7241 7.584 90.2281 7.584C90.5881 7.584 90.8041 7.8 91.2361 8.736L97.1401 21.696C97.6441 22.632 98.2201 24.072 99.8761 24.072C101.1 24.072 102.18 22.704 102.612 21.984L110.1 8.448C110.244 8.16 110.676 7.296 111.18 7.296C111.54 7.296 111.684 7.512 111.684 8.304V48.408C111.684 50.64 112.26 51 114.204 51H119.676C121.548 51 122.196 50.64 122.196 48.408V4.416C122.196 2.472 121.476 1.752 119.532 1.752H110.388C108.876 1.752 108.084 2.04 107.292 3.48L101.316 13.992C100.956 14.64 100.668 15.144 100.092 15.144C99.4441 15.144 99.1561 14.352 98.8681 13.776L94.1881 3.48C93.6841 2.4 93.1081 1.752 91.5961 1.752H87.2041ZM97.8601 35.664C95.7721 35.664 95.2681 36.168 95.2681 38.256V48.408C95.2681 50.496 95.7721 51 97.8601 51H103.188C105.276 51 105.78 50.496 105.78 48.408V38.256C105.78 36.168 105.276 35.664 103.188 35.664H97.8601ZM134.132 4.416V25.152C134.132 27.24 133.124 27.456 131.252 27.6C129.812 27.744 128.516 28.104 128.516 30.192V48.408C128.516 50.64 129.092 51 131.036 51H136.508C138.452 51 139.028 50.64 139.028 48.408V4.488C139.028 2.688 138.236 1.752 136.652 1.752C134.924 1.752 134.132 2.616 134.132 4.416ZM149.525 1.752C147.581 1.752 146.861 2.472 146.861 4.416V48.408C146.861 50.64 147.437 51 149.381 51H154.853C156.797 51 157.373 50.64 157.373 48.408V30.552C157.373 28.464 157.877 27.96 159.965 27.96H166.733C168.821 27.96 169.325 28.464 169.325 30.552V48.408C169.325 50.64 169.901 51 171.845 51H177.317C179.261 51 179.837 50.64 179.837 48.408V25.584C179.837 23.208 178.469 23.136 176.885 23.136C175.157 23.136 174.077 23.064 174.077 20.472V4.416C174.077 2.472 173.357 1.752 171.413 1.752H149.525ZM166.589 6.648C168.677 6.648 169.181 7.152 169.181 9.24V20.472C169.181 22.56 168.677 23.064 166.589 23.064H154.349C152.261 23.064 151.757 22.56 151.757 20.472V9.24C151.757 7.08 152.405 6.72 154.133 6.648H166.589ZM209.571 1.752C207.627 1.752 206.907 2.472 206.907 4.416V48.408C206.907 50.64 207.483 51 209.427 51H214.899C216.843 51 217.419 50.64 217.419 48.408V30.552C217.419 28.464 217.923 27.96 220.011 27.96H226.779C228.867 27.96 229.371 28.464 229.371 30.552V48.408C229.371 50.64 229.947 51 231.891 51H237.363C239.307 51 239.883 50.64 239.883 48.408V25.584C239.883 23.208 238.515 23.136 236.931 23.136C235.203 23.136 234.123 23.064 234.123 20.472V4.416C234.123 2.472 233.403 1.752 231.459 1.752H209.571ZM226.635 6.648C228.723 6.648 229.227 7.152 229.227 9.24V20.472C229.227 22.56 228.723 23.064 226.635 23.064H214.395C212.307 23.064 211.803 22.56 211.803 20.472V9.24C211.803 7.08 212.451 6.72 214.179 6.648H226.635ZM249.003 1.752C247.131 1.752 246.267 2.616 246.267 4.488V48.336C246.267 50.28 246.987 51 248.931 51H275.211C277.155 51 277.875 50.28 277.875 48.336V4.416C277.875 2.472 277.155 1.752 275.211 1.752H249.003ZM270.387 6.648C272.475 6.648 272.979 7.152 272.979 9.24V19.392C272.979 22.128 271.971 22.056 270.387 22.056C268.731 22.056 267.363 22.056 267.363 24.36V43.512C267.363 45.6 266.859 46.104 264.771 46.104H253.755C251.667 46.104 251.163 45.6 251.163 43.512V9.24C251.163 7.08 251.811 6.72 253.539 6.648H270.387ZM284.395 4.488V19.32C284.395 22.56 285.619 23.496 286.339 24.072L290.947 27.888C291.307 28.176 292.531 29.112 292.531 31.848V48.408C292.531 50.64 293.107 51 295.123 51H300.523C302.467 51 303.043 50.64 303.043 48.408V32.136C303.043 29.904 303.619 29.112 305.203 27.816L310.099 23.784C311.395 22.776 311.683 20.904 311.683 19.32V4.488C311.683 3.264 311.107 1.752 309.235 1.752C307.363 1.752 306.787 3.192 306.787 4.488V17.592C306.787 19.68 306.211 20.472 305.131 21.408L301.171 24.648C300.235 25.44 298.867 26.088 298.075 26.088C296.995 26.088 296.203 25.368 295.123 24.576L290.875 21.336C289.507 20.256 289.291 18.888 289.291 17.592V4.488C289.291 3.264 288.715 1.752 286.843 1.752C284.971 1.752 284.395 3.192 284.395 4.488Z" fill="#6DA8FF"/>
</g>
<path d="M11.012 1.752C9.06797 1.752 8.34797 2.472 8.34797 4.416V25.224C8.34797 27.168 9.06797 27.888 11.012 27.888H27.932C30.02 27.888 30.524 28.392 30.524 30.48V43.512C30.524 45.6 30.02 46.104 27.932 46.104H21.452C19.364 46.104 18.86 45.6 18.86 43.512V36.744C18.86 34.512 18.284 34.152 16.34 34.152H10.868C8.92397 34.152 8.34797 34.512 8.34797 36.744V48.264C8.34797 50.208 9.06797 51 11.012 51H32.396C34.772 51 35.42 50.136 35.42 48.264V25.656C35.42 23.712 34.7 22.992 32.756 22.992H15.836C13.748 22.992 13.244 22.488 13.244 20.4V9.24C13.244 7.152 13.748 6.648 15.836 6.648H27.932C30.02 6.648 30.524 7.152 30.524 9.24V13.92C30.524 15.72 31.388 16.656 33.044 16.656C34.628 16.656 35.42 15.72 35.42 13.92V4.416C35.42 2.472 34.7 1.752 32.756 1.752H11.012ZM51.58 1.752C49.42 1.752 48.772 2.544 48.772 4.56V24.792C48.772 26.952 47.692 27.6 46.036 27.6C44.308 27.6 43.156 28.104 43.156 30.696V48.408C43.156 50.568 43.516 51 45.892 51H50.932C53.164 51 53.668 50.64 53.668 48.48V30.84C53.668 28.464 54.244 28.104 56.548 28.104H67.852C70.084 28.104 70.588 28.608 70.588 30.768V48.264C70.588 50.064 71.38 51 73.036 51C74.692 51 75.484 50.064 75.484 48.264V4.488C75.484 2.4 74.62 1.752 72.676 1.752H51.58ZM67.852 6.648C70.084 6.648 70.588 7.152 70.588 9.24V20.616C70.588 22.776 70.012 23.208 67.78 23.208H56.476C54.1 23.208 53.668 22.704 53.668 20.472V9.312C53.668 7.152 54.1 6.648 56.404 6.648H67.852ZM84.4598 1.752C82.5158 1.752 81.7958 2.472 81.7958 4.416V48.264C81.7958 49.92 82.7318 51 84.1718 51C85.7558 51 86.6918 49.92 86.6918 48.264V8.664C86.6918 8.016 86.9798 7.584 87.4838 7.584C87.8438 7.584 88.0598 7.8 88.4918 8.736L94.3958 21.696C94.8998 22.632 95.4758 24.072 97.1318 24.072C98.3558 24.072 99.4358 22.704 99.8678 21.984L107.356 8.448C107.5 8.16 107.932 7.296 108.436 7.296C108.796 7.296 108.94 7.512 108.94 8.304V48.408C108.94 50.64 109.516 51 111.46 51H116.932C118.804 51 119.452 50.64 119.452 48.408V4.416C119.452 2.472 118.732 1.752 116.788 1.752H107.644C106.132 1.752 105.34 2.04 104.548 3.48L98.5718 13.992C98.2118 14.64 97.9238 15.144 97.3478 15.144C96.6998 15.144 96.4118 14.352 96.1238 13.776L91.4438 3.48C90.9398 2.4 90.3638 1.752 88.8518 1.752H84.4598ZM95.1158 35.664C93.0278 35.664 92.5238 36.168 92.5238 38.256V48.408C92.5238 50.496 93.0278 51 95.1158 51H100.444C102.532 51 103.036 50.496 103.036 48.408V38.256C103.036 36.168 102.532 35.664 100.444 35.664H95.1158ZM131.388 4.416V25.152C131.388 27.24 130.38 27.456 128.508 27.6C127.068 27.744 125.772 28.104 125.772 30.192V48.408C125.772 50.64 126.348 51 128.292 51H133.764C135.708 51 136.284 50.64 136.284 48.408V4.488C136.284 2.688 135.492 1.752 133.908 1.752C132.18 1.752 131.388 2.616 131.388 4.416ZM146.78 1.752C144.836 1.752 144.116 2.472 144.116 4.416V48.408C144.116 50.64 144.692 51 146.636 51H152.108C154.052 51 154.628 50.64 154.628 48.408V30.552C154.628 28.464 155.132 27.96 157.22 27.96H163.988C166.076 27.96 166.58 28.464 166.58 30.552V48.408C166.58 50.64 167.156 51 169.1 51H174.572C176.516 51 177.092 50.64 177.092 48.408V25.584C177.092 23.208 175.724 23.136 174.14 23.136C172.412 23.136 171.332 23.064 171.332 20.472V4.416C171.332 2.472 170.612 1.752 168.668 1.752H146.78ZM163.844 6.648C165.932 6.648 166.436 7.152 166.436 9.24V20.472C166.436 22.56 165.932 23.064 163.844 23.064H151.604C149.516 23.064 149.012 22.56 149.012 20.472V9.24C149.012 7.08 149.66 6.72 151.388 6.648H163.844ZM206.827 1.752C204.883 1.752 204.163 2.472 204.163 4.416V48.408C204.163 50.64 204.739 51 206.683 51H212.155C214.099 51 214.675 50.64 214.675 48.408V30.552C214.675 28.464 215.179 27.96 217.267 27.96H224.035C226.123 27.96 226.627 28.464 226.627 30.552V48.408C226.627 50.64 227.203 51 229.147 51H234.619C236.563 51 237.139 50.64 237.139 48.408V25.584C237.139 23.208 235.771 23.136 234.187 23.136C232.459 23.136 231.379 23.064 231.379 20.472V4.416C231.379 2.472 230.659 1.752 228.715 1.752H206.827ZM223.891 6.648C225.979 6.648 226.483 7.152 226.483 9.24V20.472C226.483 22.56 225.979 23.064 223.891 23.064H211.651C209.563 23.064 209.059 22.56 209.059 20.472V9.24C209.059 7.08 209.707 6.72 211.435 6.648H223.891ZM246.259 1.752C244.387 1.752 243.523 2.616 243.523 4.488V48.336C243.523 50.28 244.243 51 246.187 51H272.467C274.411 51 275.131 50.28 275.131 48.336V4.416C275.131 2.472 274.411 1.752 272.467 1.752H246.259ZM267.643 6.648C269.731 6.648 270.235 7.152 270.235 9.24V19.392C270.235 22.128 269.227 22.056 267.643 22.056C265.987 22.056 264.619 22.056 264.619 24.36V43.512C264.619 45.6 264.115 46.104 262.027 46.104H251.011C248.923 46.104 248.419 45.6 248.419 43.512V9.24C248.419 7.08 249.067 6.72 250.795 6.648H267.643ZM281.651 4.488V19.32C281.651 22.56 282.875 23.496 283.595 24.072L288.203 27.888C288.563 28.176 289.787 29.112 289.787 31.848V48.408C289.787 50.64 290.363 51 292.379 51H297.779C299.723 51 300.299 50.64 300.299 48.408V32.136C300.299 29.904 300.875 29.112 302.459 27.816L307.355 23.784C308.651 22.776 308.939 20.904 308.939 19.32V4.488C308.939 3.264 308.363 1.752 306.491 1.752C304.619 1.752 304.043 3.192 304.043 4.488V17.592C304.043 19.68 303.467 20.472 302.387 21.408L298.427 24.648C297.491 25.44 296.123 26.088 295.331 26.088C294.251 26.088 293.459 25.368 292.379 24.576L288.131 21.336C286.763 20.256 286.547 18.888 286.547 17.592V4.488C286.547 3.264 285.971 1.752 284.099 1.752C282.227 1.752 281.651 3.192 281.651 4.488Z" fill="black"/>
</svg>
