<svg width="99" height="115" viewBox="0 0 99 115" fill="none" xmlns="http://www.w3.org/2000/svg">
<g clip-path="url(#clip0_7_77)">
<path d="M7.04849 11.752H13.0245C15.3285 11.752 15.9765 12.4 15.9765 14.704V36.016C15.9765 38.536 16.4085 39.112 19.2885 39.112H23.6085C25.9845 39.112 26.4885 39.616 26.4885 41.992V58.12C26.4885 60.496 25.9845 61 23.6085 61H7.69649C5.32049 61 4.81649 60.496 4.81649 58.12V41.776C4.81649 39.328 5.60849 39.04 7.84049 39.112C9.28049 39.184 10.0725 38.464 10.0725 36.16V21.688C10.0725 20.752 9.78449 20.248 8.70449 20.248H6.90449C5.17649 20.248 4.81649 19.816 4.81649 18.016V13.984C4.81649 12.112 5.24849 11.752 7.04849 11.752ZM60.5434 11.752H86.7514C88.6954 11.752 89.4154 12.472 89.4154 14.416V58.336C89.4154 60.28 88.6954 61 86.7514 61H60.4714C58.5274 61 57.8074 60.28 57.8074 58.336V14.488C57.8074 12.616 58.6714 11.752 60.5434 11.752ZM81.9274 16.648H65.0794C63.3514 16.72 62.7034 17.08 62.7034 19.24V53.512C62.7034 55.6 63.2074 56.104 65.2954 56.104H76.3114C78.3994 56.104 78.9034 55.6 78.9034 53.512V34.36C78.9034 32.056 80.2714 32.056 81.9274 32.056C83.5114 32.056 84.5194 32.128 84.5194 29.392V19.24C84.5194 17.152 84.0154 16.648 81.9274 16.648Z" fill="#FFF500"/>
<g style="mix-blend-mode:multiply">
<path d="M13.9047 11.752H19.8807C22.1847 11.752 22.8327 12.4 22.8327 14.704V36.016C22.8327 38.536 23.2647 39.112 26.1447 39.112H30.4647C32.8407 39.112 33.3447 39.616 33.3447 41.992V58.12C33.3447 60.496 32.8407 61 30.4647 61H14.5527C12.1767 61 11.6727 60.496 11.6727 58.12V41.776C11.6727 39.328 12.4647 39.04 14.6967 39.112C16.1367 39.184 16.9287 38.464 16.9287 36.16V21.688C16.9287 20.752 16.6407 20.248 15.5607 20.248H13.7607C12.0327 20.248 11.6727 19.816 11.6727 18.016V13.984C11.6727 12.112 12.1047 11.752 13.9047 11.752ZM67.3996 11.752H93.6076C95.5516 11.752 96.2716 12.472 96.2716 14.416V58.336C96.2716 60.28 95.5516 61 93.6076 61H67.3276C65.3836 61 64.6636 60.28 64.6636 58.336V14.488C64.6636 12.616 65.5276 11.752 67.3996 11.752ZM88.7836 16.648H71.9356C70.2076 16.72 69.5596 17.08 69.5596 19.24V53.512C69.5596 55.6 70.0636 56.104 72.1516 56.104H83.1676C85.2556 56.104 85.7596 55.6 85.7596 53.512V34.36C85.7596 32.056 87.1276 32.056 88.7836 32.056C90.3676 32.056 91.3756 32.128 91.3756 29.392V19.24C91.3756 17.152 90.8716 16.648 88.7836 16.648Z" fill="#6DA8FF"/>
</g>
<path d="M10.741 11.752H16.717C19.021 11.752 19.669 12.4 19.669 14.704V36.016C19.669 38.536 20.101 39.112 22.981 39.112H27.301C29.677 39.112 30.181 39.616 30.181 41.992V58.12C30.181 60.496 29.677 61 27.301 61H11.389C9.01299 61 8.50899 60.496 8.50899 58.12V41.776C8.50899 39.328 9.30099 39.04 11.533 39.112C12.973 39.184 13.765 38.464 13.765 36.16V21.688C13.765 20.752 13.477 20.248 12.397 20.248H10.597C8.86899 20.248 8.50899 19.816 8.50899 18.016V13.984C8.50899 12.112 8.94099 11.752 10.741 11.752ZM64.2359 11.752H90.4439C92.3879 11.752 93.1079 12.472 93.1079 14.416V58.336C93.1079 60.28 92.3879 61 90.4439 61H64.1639C62.2199 61 61.4999 60.28 61.4999 58.336V14.488C61.4999 12.616 62.3639 11.752 64.2359 11.752ZM85.6199 16.648H68.7719C67.0439 16.72 66.3959 17.08 66.3959 19.24V53.512C66.3959 55.6 66.8999 56.104 68.9879 56.104H80.0039C82.0919 56.104 82.5959 55.6 82.5959 53.512V34.36C82.5959 32.056 83.9639 32.056 85.6199 32.056C87.2039 32.056 88.2119 32.128 88.2119 29.392V19.24C88.2119 17.152 87.7079 16.648 85.6199 16.648Z" fill="black"/>
<rect x="47" y="9" width="6" height="99" fill="#6DA8FF"/>
<rect x="41" y="9" width="6" height="99" fill="#FFF500"/>
<rect x="44" y="9" width="6" height="99" fill="black"/>
</g>
<defs>
<clipPath id="clip0_7_77">
<rect width="99" height="115" fill="white"/>
</clipPath>
</defs>
</svg>
