<svg id="Layer_1" data-name="Layer 1" xmlns="http://www.w3.org/2000/svg" viewBox="0 0 97.24 97.41"><defs><style>.cls-1{fill:#ccd5de;}.cls-2{fill:#ff5c5c;}.cls-3{fill:#f0faff;}.cls-4{fill:#ffb5a6;}.cls-5{fill:#f24165;}.cls-6{fill:#2c3d60;}.cls-7{fill:#e2e9f2;}.cls-8{fill:#fff;}.cls-9{fill:#b8c8e6;}</style></defs><title>tools</title><g id="tools"><g id="turn-screw"><g id="colors-23"><path class="cls-1" d="M127.92,92.65,103.4,117.17V116a5.78,5.78,0,0,0-5.56-6H96.71L121,85.76h0a10.81,10.81,0,0,0,2.48-3.92l2.1-5.79a2.65,2.65,0,0,1,1.11-1.36l12.14-7.46a2.66,2.66,0,0,1,3.29.39l3.9,3.91a2.67,2.67,0,0,1,.4,3.28L139,86.95a2.57,2.57,0,0,1-1.37,1.1l-5.78,2.1A10.82,10.82,0,0,0,127.92,92.65Z" transform="translate(-51.41 -61.28)"/><path class="cls-2" d="M97.66,110H91.87a8.58,8.58,0,0,0-6.06,2.52L59.64,138.71A10.84,10.84,0,1,0,75,154l25.77-25.77a8.58,8.58,0,0,0,2.51-5.79l.16-5.3V116a5.78,5.78,0,0,0-5.59-6Z" transform="translate(-51.41 -61.28)"/></g><g id="shadows-18"><path class="cls-3" d="M101.81,111.79l24.13-24.13a5.15,5.15,0,0,0,1.26-2.07l2.19-6.82a2.63,2.63,0,0,1,1.12-1.43l13.16-8.18-3.43-2.32-14,8.2-3.52,8.46-25.44,26Z" transform="translate(-51.41 -61.28)"/><path class="cls-4" d="M64.84,143.91,80.73,128a3.67,3.67,0,0,0,0-5.19h0a3.67,3.67,0,0,0-5.19,0h0l-15.9,15.9c-4.78,4.78-4.77,14.54,4.8,18.1C59,153.27,59.64,149.1,64.84,143.91Z" transform="translate(-51.41 -61.28)"/><path class="cls-5" d="M101.81,111.79a17.48,17.48,0,0,0-14.61-.32l-4.14,3.82L87,119.18a8.81,8.81,0,0,1,0,12.46h0L69.76,148.83l5,5L98.19,130.4l.16.16,3.75-4.21Q104.91,118.42,101.81,111.79Z" transform="translate(-51.41 -61.28)"/></g><g id="lines-20"><path class="cls-6" d="M67.31,158.69a12.32,12.32,0,0,1-8.73-21l26.17-26.17a10,10,0,0,1,7.13-3h5.79A7.28,7.28,0,0,1,105,115.8q0,.12,0,.23l-.21,6.47a10,10,0,0,1-2.95,6.81L76,155.09A12.28,12.28,0,0,1,67.31,158.69Zm24.56-47.16a7,7,0,0,0-5,2.07L60.7,139.77A9.34,9.34,0,0,0,73.9,153l25.76-25.8a7,7,0,0,0,2.07-4.78l.21-6.47a4.28,4.28,0,0,0-4.14-4.42H91.87Z" transform="translate(-51.41 -61.28)"/><path class="cls-6" d="M64.84,144.91a1,1,0,0,1-.71-1.71l23.43-23.43A1,1,0,0,1,89,121.19L65.54,144.62A1,1,0,0,1,64.84,144.91Z" transform="translate(-51.41 -61.28)"/><path class="cls-6" d="M69.76,149.83a1,1,0,0,1-.71-1.71L97.4,119.78a1,1,0,0,1,1.41,1.41L70.47,149.54A1,1,0,0,1,69.76,149.83Z" transform="translate(-51.41 -61.28)"/><path class="cls-6" d="M75,155.53a1.5,1.5,0,0,1-1.06-.44L58.58,139.77a1.5,1.5,0,0,1,2.12-2.12L76,153a1.5,1.5,0,0,1-1,2.53Z" transform="translate(-51.41 -61.28)"/><path class="cls-6" d="M103.39,118.67a1.5,1.5,0,0,1-1.06-2.56L126.75,91.7l.1-.11a12.31,12.31,0,0,1,4.45-2.84l5.79-2.1a1.17,1.17,0,0,0,.61-.5L145.16,74a1.18,1.18,0,0,0-.18-1.44l-3.9-3.9a1.18,1.18,0,0,0-1.45-.18L127.51,76a1.15,1.15,0,0,0-.49.6l-2.1,5.78a12.12,12.12,0,0,1-2.83,4.47l-.06.05L97.8,111.1a1.5,1.5,0,0,1-2.12-2.1L120,84.7l.05-.05a9.14,9.14,0,0,0,2.08-3.32l2.1-5.78A4.16,4.16,0,0,1,126,73.41l12.12-7.46a4.18,4.18,0,0,1,5.14.61l3.9,3.9a4.17,4.17,0,0,1,.62,5.13l-7.47,12.14a4.18,4.18,0,0,1-2.16,1.74l-5.76,2.09a9.31,9.31,0,0,0-3.26,2l-.09.1L104.5,118.18A1.5,1.5,0,0,1,103.39,118.67Z" transform="translate(-51.41 -61.28)"/></g></g><g id="wrench"><g id="colors-24"><path class="cls-7" d="M88.88,69a21.1,21.1,0,0,1,0,29.84q-.36.36-.74.7a20.51,20.51,0,0,1-6.06,3.82A21.26,21.26,0,0,1,59.88,99.6c-.28-.25-.56-.52-.83-.8L69.84,88l7.31-7.31a1.33,1.33,0,0,0,0-1.88L63.77,65.44A21.07,21.07,0,0,1,88.88,69Z" transform="translate(-51.41 -61.28)"/><path class="cls-7" d="M69.84,88,59,98.8a21.07,21.07,0,0,1-3.54-25.11Z" transform="translate(-51.41 -61.28)"/><path class="cls-7" d="M121.86,118.6l22,20.58a10.33,10.33,0,0,1-13.92,15.27l-.46-.45-.23-.23L82.08,103.36h0a20.51,20.51,0,0,0,6.06-3.82A21.09,21.09,0,0,0,93.43,92ZM140.5,147a3.42,3.42,0,1,0-3.43,3.41h0a3.41,3.41,0,0,0,3.42-3.4Z" transform="translate(-51.41 -61.28)"/></g><g id="shadows-19"><path class="cls-8" d="M62.75,101.75,80.38,84.13a5.72,5.72,0,0,0,0-8.08L68.13,63.8l-4.37,1.64,14,14L59,98.8Z" transform="translate(-51.41 -61.28)"/><path class="cls-9" d="M82.57,103.12c5-2.46,8.66-5.92,10.69-10.69l4,4A19.13,19.13,0,0,1,86,107.56Z" transform="translate(-51.41 -61.28)"/><path class="cls-9" d="M124,148.14c12.54,12.54,26.78-1.69,14.23-14.23l6.08,6.08c9.18,9.18-5.23,23.59-14.41,14.41Z" transform="translate(-51.41 -61.28)"/><polygon class="cls-8" points="65.36 79.17 65.36 52.56 70.45 57.33 70.45 84.34 65.36 79.17"/><polygon class="cls-8" points="61.29 48.76 61.29 74.83 52.03 64.92 52.03 40.48 61.29 48.76"/><polygon class="cls-8" points="4.1 12.41 18.26 26.57 15.24 29.59 2.32 16.66 4.1 12.41"/></g><g id="lines-21"><path class="cls-6" d="M144.87,138.08,95.2,91.6A22.58,22.58,0,0,0,63,64.13a1.5,1.5,0,0,0-.33,2.37L76,79.76l-18,18a1.5,1.5,0,0,0-.08,2l.12.13c.28.29.56.56.85.82A22.52,22.52,0,0,0,74,106.41a23,23,0,0,0,7.69-1.33l46.55,49.76.23.23a11.83,11.83,0,0,0,16.77-16.69l-.32-.31ZM61.2,98.77l17-17a2.84,2.84,0,0,0,0-4L66.31,65.87A19.56,19.56,0,0,1,87.8,97.72q-.33.33-.68.65A19.77,19.77,0,0,1,61.2,98.77ZM143,153a8.85,8.85,0,0,1-12.5,0l-46-49.15a22,22,0,0,0,4.59-3.19,22.69,22.69,0,0,0,4.77-6.11l48.91,45.77a8.83,8.83,0,0,1,.42,12.48Z" transform="translate(-51.41 -61.28)"/><path class="cls-6" d="M121.86,135.58a1,1,0,0,1-1-1v-16a1,1,0,0,1,2,0v16A1,1,0,0,1,121.86,135.58Z" transform="translate(-51.41 -61.28)"/><path class="cls-6" d="M116.77,126.44a1,1,0,0,1-1-1v-9.91a1,1,0,0,1,2,0v9.91A1,1,0,0,1,116.77,126.44Z" transform="translate(-51.41 -61.28)"/><path class="cls-6" d="M59,100.3a1.49,1.49,0,0,1-1-.44A22.64,22.64,0,0,1,54.2,73a1.5,1.5,0,0,1,2.37-.33L70.9,87a1.5,1.5,0,0,1-2.12,2.12L55.93,76.23a19.65,19.65,0,0,0,4.18,21.5A1.5,1.5,0,0,1,59,100.3Z" transform="translate(-51.41 -61.28)"/><path class="cls-6" d="M137.08,151.92A4.91,4.91,0,1,1,142,147,4.91,4.91,0,0,1,137.08,151.92Zm0-6.83A1.91,1.91,0,1,0,139,147a1.91,1.91,0,0,0-1.92-1.91Z" transform="translate(-51.41 -61.28)"/><path class="cls-6" d="M80.79,98.66a1.05,1.05,0,0,1-.71-.29,1.16,1.16,0,0,1-.21-.33,1,1,0,0,1,.21-1.09,1,1,0,1,1,.71,1.71Z" transform="translate(-51.41 -61.28)"/><path class="cls-6" d="M74,100.25a16.3,16.3,0,0,1-6.64-1.4A1,1,0,1,1,68.13,97a14.53,14.53,0,0,0,9.3.81A1,1,0,1,1,78,99.73l-.08,0A16.48,16.48,0,0,1,74,100.25Z" transform="translate(-51.41 -61.28)"/></g></g></g></svg>