<?xml version="1.0" encoding="UTF-8" standalone="no"?>
<!DOCTYPE svg PUBLIC "-//W3C//DTD SVG 1.1//EN" "http://www.w3.org/Graphics/SVG/1.1/DTD/svg11.dtd">
<svg width="100%" height="100%" viewBox="0 0 595 595" version="1.1" xmlns="http://www.w3.org/2000/svg" xmlns:xlink="http://www.w3.org/1999/xlink" xml:space="preserve" xmlns:serif="http://www.serif.com/" style="fill-rule:evenodd;clip-rule:evenodd;stroke-linejoin:round;stroke-miterlimit:2;">
    <g id="Layer-1" serif:id="Layer 1" transform="matrix(1,0,0,1,-123.445,-0.14)">
        <g transform="matrix(1.87607,0,0,1.87607,426.404,556.999)">
            <path d="M0,-248.075C-44.273,-248.075 -71.833,-236.038 -71.833,-236.038L-86.691,-228.737L-89.607,-231.758L-89.5,-260.705C-89.5,-260.705 -93.828,-263.27 -96.482,-264.842L-96.833,-265.037L-111.5,-259.037L-111.5,-254.037C-123.833,-248.703 -132.167,-237.703 -132.167,-237.703C-136.833,-232.37 -135.833,-219.703 -135.833,-219.703L-137.748,-217.655C-141.866,-210.602 -154.447,-184.541 -148.833,-162.37C-148.833,-162.37 -134.5,-172.036 -127.167,-179.37C-127.167,-179.37 -124.5,-167.372 -122.167,-163.038L-132.768,-160.37L-134.101,-66.038C-134.101,-66.038 -101.434,-57.704 -85.101,-54.704L-83.773,-53.026C-72.455,-31.864 -47.431,-1.981 -1.768,16.63L-0.167,16.962C44.882,-1.397 69.896,-30.751 81.376,-51.831L82.167,-53.37C98.5,-56.37 132.167,-68.704 132.167,-68.704L130.834,-160.038L116.5,-165.372C118.833,-169.706 120.834,-181.037 120.834,-181.037C128.168,-173.704 143.167,-163.372 143.167,-163.372C149.834,-189.705 131.5,-218.704 131.5,-218.704C132.166,-227.704 129.5,-233.038 129.5,-233.038C128.834,-238.372 117.5,-246.371 117.5,-246.371L106.167,-252.705L105.5,-257.038L92.834,-264.372L83.834,-258.705L83.834,-231.758C83.834,-231.758 82.196,-230.529 79.727,-229.737L67.167,-235.705C67.167,-235.705 44.273,-248.075 0,-248.075" style="fill:rgb(91,91,91);fill-rule:nonzero;"/>
        </g>
        <g transform="matrix(-0.456543,1.81968,1.81968,0.456543,527.94,49.9609)">
            <path d="M123.594,-152.659C123.594,-152.659 153.126,-140.928 171.788,-123.531L123.594,79.512C123.594,79.512 82.193,84.916 64.289,82.667L123.594,-152.659Z" style="fill:rgb(51,55,73);fill-rule:nonzero;"/>
        </g>
        <g transform="matrix(0,-1.87607,-1.87607,0,279.866,161.117)">
            <path d="M-8.276,-8.276C-12.847,-8.276 -16.551,-4.571 -16.551,-0.001C-16.551,4.57 -12.847,8.276 -8.276,8.276C-3.705,8.276 -0.001,4.57 -0.001,-0.001C-0.001,-4.571 -3.705,-8.276 -8.276,-8.276" style="fill:white;fill-rule:nonzero;"/>
        </g>
        <g transform="matrix(0,-1.87607,-1.87607,0,314.946,167.444)">
            <path d="M-8.276,-8.276C-12.846,-8.276 -16.552,-4.571 -16.552,0C-16.552,4.571 -12.846,8.276 -8.276,8.276C-3.705,8.276 0,4.571 0,0C0,-4.571 -3.705,-8.276 -8.276,-8.276" style="fill:white;fill-rule:nonzero;"/>
        </g>
        <g transform="matrix(0,-1.87607,-1.87607,0,348.297,173.768)">
            <path d="M-8.277,-8.275C-12.847,-8.275 -16.552,-4.57 -16.552,0.001C-16.552,4.571 -12.847,8.277 -8.277,8.277C-3.705,8.277 -0.001,4.571 -0.001,0.001C-0.001,-4.57 -3.705,-8.275 -8.277,-8.275" style="fill:white;fill-rule:nonzero;"/>
        </g>
        <g transform="matrix(0,-1.87607,-1.87607,0,348.294,213.447)">
            <path d="M-8.275,-8.277C-12.847,-8.277 -16.552,-4.571 -16.552,-0.001C-16.552,4.569 -12.847,8.275 -8.275,8.275C-3.705,8.275 0,4.569 0,-0.001C0,-4.571 -3.705,-8.277 -8.275,-8.277" style="fill:white;fill-rule:nonzero;"/>
        </g>
        <g transform="matrix(0,-1.87607,-1.87607,0,315.515,208.274)">
            <path d="M-8.274,-8.278C-12.845,-8.278 -16.552,-4.573 -16.552,-0.002C-16.552,4.569 -12.845,8.274 -8.274,8.274C-3.704,8.274 0,4.569 0,-0.002C0,-4.573 -3.704,-8.278 -8.274,-8.278" style="fill:white;fill-rule:nonzero;"/>
        </g>
        <g transform="matrix(0,-1.87607,-1.87607,0,279.293,205.97)">
            <path d="M-8.277,-8.275C-12.849,-8.275 -16.552,-4.57 -16.552,0.001C-16.552,4.572 -12.849,8.277 -8.277,8.277C-3.707,8.277 -0.001,4.572 -0.001,0.001C-0.001,-4.57 -3.707,-8.275 -8.277,-8.275" style="fill:white;fill-rule:nonzero;"/>
        </g>
        <g transform="matrix(0,-1.87607,-1.87607,0,495.505,174.343)">
            <path d="M-8.276,-8.277C-12.847,-8.277 -16.552,-4.57 -16.552,-0.001C-16.552,4.57 -12.847,8.276 -8.276,8.276C-3.706,8.276 -0.001,4.57 -0.001,-0.001C-0.001,-4.57 -3.706,-8.277 -8.276,-8.277" style="fill:white;fill-rule:nonzero;"/>
        </g>
        <g transform="matrix(0,-1.87607,-1.87607,0,530.008,166.869)">
            <path d="M-8.276,-8.276C-12.846,-8.276 -16.551,-4.571 -16.551,-0.001C-16.551,4.571 -12.846,8.276 -8.276,8.276C-3.705,8.276 -0.001,4.571 -0.001,-0.001C-0.001,-4.571 -3.705,-8.276 -8.276,-8.276" style="fill:white;fill-rule:nonzero;"/>
        </g>
        <g transform="matrix(0,-1.87607,-1.87607,0,565.085,160.544)">
            <path d="M-8.276,-8.276C-12.847,-8.276 -16.551,-4.571 -16.551,0C-16.551,4.571 -12.847,8.276 -8.276,8.276C-3.705,8.276 -0.001,4.571 -0.001,0C-0.001,-4.571 -3.705,-8.276 -8.276,-8.276" style="fill:white;fill-rule:nonzero;"/>
        </g>
        <g transform="matrix(0,-1.87607,-1.87607,0,565.085,205.396)">
            <path d="M-8.276,-8.276C-12.846,-8.276 -16.551,-4.571 -16.551,0C-16.551,4.571 -12.846,8.276 -8.276,8.276C-3.706,8.276 -0.001,4.571 -0.001,0C-0.001,-4.571 -3.706,-8.276 -8.276,-8.276" style="fill:white;fill-rule:nonzero;"/>
        </g>
        <g transform="matrix(0,-1.87607,-1.87607,0,530.582,210.573)">
            <path d="M-8.275,-8.276C-12.846,-8.276 -16.551,-4.572 -16.551,0C-16.551,4.57 -12.846,8.275 -8.275,8.275C-3.704,8.275 -0,4.57 -0,0C-0,-4.572 -3.704,-8.276 -8.275,-8.276" style="fill:white;fill-rule:nonzero;"/>
        </g>
        <g transform="matrix(0,-1.87607,-1.87607,0,497.229,213.447)">
            <path d="M-8.275,-8.277C-12.847,-8.277 -16.552,-4.572 -16.552,-0.002C-16.552,4.569 -12.847,8.275 -8.275,8.275C-3.705,8.275 0,4.569 0,-0.002C0,-4.572 -3.705,-8.277 -8.275,-8.277" style="fill:white;fill-rule:nonzero;"/>
        </g>
        <g transform="matrix(1.87607,0,0,1.87607,276.374,210.828)">
            <path d="M0,-4.894L-11.32,-9.925L-12.997,-19.987L-6.986,-25.157L-7.267,-19.987L-6.567,-14.537L2.237,-8.386L7.129,-9.085L10.903,-14.117L13.557,-11.042L20.405,-5.872L26.555,-8.248L29.627,-12.021L37.594,-2.377L34.8,1.115L29.769,6.846L30.886,12.296L37.315,18.304L31.585,20.263L25.436,15.37L27.254,10.899L26.415,3.072L20.965,-0.001L14.954,0.556L12.579,4.888L13.557,10.339L18.308,15.513L19.566,18.446L13.696,18.864L8.525,14.952C8.525,14.952 8.524,11.737 8.665,11.317C8.806,10.899 10.203,7.127 10.203,7.127L8.525,2.373L5.311,-0.84L0.56,-2.239L-4.611,-0.282L-7.125,3.491L-6.847,8.524L-3.632,11.737L-0.139,13.974L2.237,16.907L-4.191,18.026L-10.76,15.649L-12.437,10.198L-12.717,4.469L-11.179,-0.421L-8.803,-2.797L-4.611,-4.055L0,-4.894Z" style="fill:rgb(190,192,194);fill-rule:nonzero;"/>
        </g>
        <g transform="matrix(1.87607,0,0,1.87607,568.973,212.921)">
            <path d="M0,-4.893L11.318,-9.924L12.994,-19.986L6.986,-25.157L7.266,-19.986L6.565,-14.537L-2.238,-8.386L-7.131,-9.085L-10.903,-14.117L-13.558,-11.042L-20.406,-5.872L-26.556,-8.247L-29.629,-12.02L-37.597,-2.377L-34.801,1.116L-29.771,6.846L-30.887,12.299L-37.316,18.305L-31.588,20.264L-25.437,15.371L-27.255,10.9L-26.416,3.074L-20.965,-0.001L-14.955,0.557L-12.581,4.889L-13.558,10.34L-18.311,15.514L-19.568,18.447L-13.697,18.865L-8.529,14.953C-8.529,14.953 -8.525,11.738 -8.666,11.318C-8.808,10.9 -10.205,7.127 -10.205,7.127L-8.529,2.375L-5.312,-0.839L-0.561,-2.239L4.609,-0.282L7.126,3.491L6.845,8.523L3.631,11.738L0.138,13.973L-2.238,16.908L4.188,18.027L10.759,15.65L12.436,10.199L12.717,4.469L11.177,-0.42L8.801,-2.796L4.609,-4.055L0,-4.893Z" style="fill:rgb(190,192,194);fill-rule:nonzero;"/>
        </g>
        <g transform="matrix(1.87607,0,0,1.87607,221.809,89.5476)">
            <path d="M0,77.133L-9.756,67.081L-10.326,56.817L7.283,39.209L8.541,-6.91L14.41,-5.233L15.249,82.393L6.697,84.043L0,77.133Z" style="fill:rgb(190,192,194);fill-rule:nonzero;"/>
        </g>
        <g transform="matrix(1.87607,0,0,1.87607,625.832,89.9502)">
            <path d="M0,74.229L4.782,69.162L8.685,55.346L-8.924,37.735L-10.183,-8.383L-16.053,-6.705L-16.89,80.92L-8.128,82.612L0,74.229Z" style="fill:rgb(190,192,194);fill-rule:nonzero;"/>
        </g>
        <g transform="matrix(1.87607,0,0,1.87607,512.343,167.039)">
            <path d="M0,-23.479L0.418,0L32.282,-12.159L0,-23.479Z" style="fill:rgb(88,89,91);fill-rule:nonzero;"/>
        </g>
        <g transform="matrix(1.87607,0,0,1.87607,332.22,166.251)">
            <path d="M0,-23.478L-0.419,0L-32.283,-12.158L0,-23.478Z" style="fill:rgb(88,89,91);fill-rule:nonzero;"/>
        </g>
        <g transform="matrix(1.87607,0,0,1.87607,612.63,216.986)">
            <path d="M0,-65.405L0.208,-37.944L6.078,-18.867L35.007,0.419L33.541,-16.98L22.221,-34.59L21.59,-49.683L3.353,-65.824L0,-65.405Z" style="fill:rgb(254,209,2);fill-rule:nonzero;"/>
        </g>
        <g transform="matrix(1.87607,0,0,1.87607,230.488,215.94)">
            <path d="M0,-65.404L-0.209,-37.942L-6.079,-18.866L-35.008,0.419L-33.54,-16.98L-22.22,-34.589L-21.591,-49.682L-3.354,-65.823L0,-65.404Z" style="fill:rgb(254,209,2);fill-rule:nonzero;"/>
        </g>
        <g transform="matrix(1.87607,0,0,1.87607,166.51,146.066)">
            <path d="M0,35.36C2.36,19.485 10.163,8.077 14.142,3.134L14.142,-6.403C14.142,-10.584 17.729,-14.239 17.729,-14.239C23.575,-21.133 32.75,-26.453 32.75,-26.453L32.75,-1.186C21.943,4.701 16.769,9.224 14.902,11.916C14.152,12.998 14.185,13.891 14.289,14.363C14.464,14.861 14.833,15.423 15.606,15.789C16.959,16.408 18.833,15.794 22.203,13.755C26.229,11.333 26.836,13.534 26.35,14.999C25.87,16.216 24.833,17.582 22.63,18.702C5.553,27.405 0,35.36 0,35.36M31.562,49.093C31.548,49.091 30.753,48.435 30.738,48.435L29.641,47.116C29.424,47.087 27.884,45.47 26.402,43.823L25.448,40.835L26.365,23.001C27.404,22.345 28.594,21.326 29.698,20.668C34.983,17.497 32.352,17.573 32.753,14.163L32.753,50.411L31.562,49.093ZM42.091,-35.415L42.156,54.292C41.543,54.306 40.913,54.417 40.281,54.417L40.205,-36.418L42.091,-35.415ZM48.017,38.785C48.445,37.453 49.307,36.225 50.49,35.3C50.251,35.754 50.051,36.225 49.885,36.726C48.558,40.884 50.259,45.556 54.106,48.347C55.271,49.187 56.582,49.796 57.961,50.15C55.837,50.325 53.528,49.777 51.57,48.353C48.14,45.868 47.031,41.89 48.017,38.785M48.043,14.427C48.456,13.176 49.27,12.066 50.383,11.237C50.202,11.599 50.051,11.968 49.923,12.351C48.597,16.393 50.27,21.149 54.066,24.192C55.424,25.276 57.029,26.063 58.704,26.498C56.321,26.693 53.678,25.921 51.597,24.256C48.289,21.608 47.008,17.598 48.043,14.427M64.896,45.478C62.15,47.812 58.122,46.739 56.269,45.368C53.35,43.196 52.711,39.974 53.392,37.851C54.006,35.926 55.999,33.979 59.062,33.979C62.265,34.019 64.853,35.984 66.019,38.185C67.417,40.812 66.954,43.736 64.896,45.478M53.418,13.501C53.959,11.837 55.73,10.15 58.473,10.15C58.938,10.15 63.339,10.245 66.035,14.981C67.199,17.008 67.308,20.327 64.988,22.139C62.458,24.115 58.328,22.961 56.366,21.319C53.84,19.21 52.583,16.049 53.418,13.501M86.094,-11.193L86.094,8.445C76.027,5.816 66.985,2.42 59.278,-1.582C67.905,-5.464 76.877,-8.677 86.094,-11.193M87.329,24.742C88.02,27.719 90.188,31.12 94.083,32.338C93.385,32.466 92.604,32.48 91.741,32.329C88.659,31.802 86.688,29.665 85.717,27.419C86.347,26.741 86.863,25.962 87.201,25.085C87.25,24.968 87.295,24.86 87.329,24.742M94.597,18.543C98.942,18.655 100.718,22.704 100.718,24.906C100.718,26.531 99.667,29.102 96.88,29.102L96.876,29.102C96.268,29.105 94.185,28.964 92.604,27.13C91.563,25.921 90.824,24.452 90.797,22.669C90.776,20.905 92.091,18.48 94.597,18.543M90.742,43.625C90.736,41.919 92.219,38.746 95.688,39.215C99.209,39.697 100.76,43.019 100.688,45.177C100.635,46.896 99.343,49.927 95.796,49.585C91.893,49.194 90.751,45.314 90.742,43.625M93.574,52.853C92.997,52.954 92.373,52.984 91.687,52.917C88.811,52.599 86.92,50.818 85.901,48.818C86.461,48.116 86.896,47.353 87.188,46.603C87.257,46.417 87.319,46.224 87.381,46.027C88.107,48.782 90.116,51.755 93.574,52.853M73.162,40.896C73.493,38.921 75.101,36.789 77.852,36.789C78.089,36.789 79.769,36.829 81.328,37.944C83.986,39.851 84.563,43.102 83.752,45.278C83.17,46.827 80.693,49.46 77.078,47.894C74.008,46.556 72.766,43.303 73.162,40.896M69.838,44.73C70.621,47.402 72.524,49.946 75.635,51.278C75.951,51.415 76.274,51.523 76.6,51.632C75.413,51.804 74.105,51.671 72.737,51.087C70.696,50.21 69.305,48.693 68.496,47.017C69.051,46.312 69.516,45.55 69.838,44.73M73.143,18.631C73.323,17.048 74.598,14.68 77.372,14.68C77.725,14.68 79.593,14.813 81.278,16.139C84.037,18.302 84.614,21.618 83.778,23.745C83.175,25.288 82.003,25.991 80.804,26.249C79.3,26.583 77.886,26.098 77.202,25.745C74.209,24.192 72.882,21.023 73.143,18.631M75.552,29.033C76.064,29.287 76.579,29.485 77.096,29.64C75.772,29.847 74.284,29.652 72.758,28.885C70.559,27.786 69.091,25.967 68.317,24.03C68.916,23.37 69.416,22.625 69.772,21.814C70.467,24.569 72.298,27.401 75.552,29.033M177.96,18.543C180.474,18.48 181.784,20.905 181.761,22.669C181.743,24.452 180.999,25.921 179.955,27.13C178.381,28.964 176.298,29.105 175.679,29.102C172.89,29.102 171.849,26.531 171.849,24.906C171.845,22.704 173.619,18.655 177.96,18.543M185.224,24.742C185.271,24.86 185.309,24.968 185.353,25.087C185.702,25.962 186.219,26.741 186.836,27.422C185.88,29.665 183.903,31.802 180.818,32.329C179.955,32.483 179.176,32.466 178.479,32.339C182.372,31.12 184.544,27.719 185.224,24.742M186.341,-10.957C195.321,-8.461 204.063,-5.301 212.489,-1.504C204.954,2.397 196.129,5.724 186.341,8.309L186.341,-10.957ZM219.145,13.501C219.979,16.052 218.724,19.21 216.198,21.318C214.226,22.961 210.104,24.113 207.572,22.138C205.255,20.326 205.362,17.008 206.521,14.977C209.216,10.242 213.625,10.15 214.089,10.15C216.827,10.15 218.601,11.837 219.145,13.501M222.638,12.351C222.516,11.968 222.353,11.599 222.177,11.237C223.288,12.066 224.104,13.176 224.517,14.427C225.558,17.598 224.271,21.608 220.958,24.254C218.884,25.92 216.242,26.691 213.862,26.495C215.534,26.062 217.137,25.276 218.499,24.19C222.298,21.149 223.965,16.393 222.638,12.351M214.601,50.146C215.979,49.792 217.296,49.185 218.457,48.345C222.306,45.556 223.999,40.882 222.679,36.723C222.516,36.222 222.316,35.751 222.07,35.299C223.259,36.222 224.114,37.451 224.544,38.783C225.529,41.89 224.429,45.868 220.996,48.349C219.032,49.777 216.727,50.325 214.601,50.146M176.763,49.585C173.218,49.927 171.928,46.894 171.868,45.175C171.801,43.019 173.351,39.697 176.876,39.215C180.341,38.746 181.818,41.917 181.815,43.621C181.81,45.314 180.671,49.194 176.763,49.585M180.879,52.917C180.19,52.984 179.565,52.952 178.981,52.853C182.448,51.755 184.454,48.782 185.174,46.027C185.239,46.224 185.307,46.417 185.372,46.603C185.661,47.353 186.106,48.116 186.659,48.818C185.643,50.818 183.751,52.599 180.879,52.917M206.536,38.185C207.704,35.984 210.302,34.02 213.495,33.979C216.555,33.979 218.556,35.925 219.173,37.851C219.847,39.975 219.218,43.199 216.292,45.368C214.442,46.739 210.415,47.812 207.673,45.478C205.601,43.736 205.14,40.812 206.536,38.185M195.351,25.745C194.675,26.098 193.259,26.587 191.754,26.252C190.555,25.992 189.386,25.29 188.782,23.746C187.946,21.618 188.522,18.303 191.288,16.141C192.966,14.815 194.834,14.681 195.188,14.681C197.963,14.681 199.231,17.049 199.415,18.631C199.676,21.023 198.354,24.192 195.351,25.745M199.803,28.885C198.278,29.652 196.784,29.847 195.463,29.64C195.98,29.484 196.5,29.287 197.013,29.033C200.263,27.401 202.089,24.572 202.788,21.814C203.154,22.625 203.645,23.374 204.243,24.03C203.467,25.964 201.999,27.782 199.803,28.885M195.479,47.894C191.863,49.462 189.388,46.827 188.816,45.278C188.003,43.102 188.575,39.851 191.237,37.944C192.784,36.829 194.475,36.789 194.71,36.789C197.464,36.789 199.063,38.921 199.394,40.896C199.792,43.303 198.548,46.556 195.479,47.894M196.927,51.278C200.043,49.946 201.934,47.402 202.72,44.73C203.053,45.55 203.509,46.312 204.063,47.017C203.261,48.693 201.864,50.206 199.825,51.087C198.457,51.675 197.15,51.804 195.96,51.632C196.289,51.525 196.61,51.415 196.927,51.278M231.854,-36.243L231.854,51.206L229.978,51.206L229.958,-35.238L231.854,-36.243ZM239.865,17.001C240.279,20.4 238.904,19.742 244.156,22.886C245.151,23.473 242.593,23.919 243.531,24.501L247.698,56.167C243.417,60.448 237.906,57.167 239.232,50.136L239.865,17.001ZM239.306,-26.453C239.306,-26.453 248.473,-21.13 254.323,-14.239C254.323,-14.239 257.912,-10.584 257.912,-6.401L257.912,3.135C261.888,8.077 269.688,19.487 272.058,35.362C272.058,35.362 266.502,27.408 249.417,18.707C247.227,17.586 246.184,16.219 245.701,14.995C245.22,13.537 245.828,11.336 249.849,13.758C253.21,15.797 255.096,16.411 256.439,15.792C257.22,15.428 257.592,14.864 257.759,14.366C257.867,13.895 257.903,13.002 257.15,11.919C255.286,9.228 250.117,4.703 239.306,-1.182L239.306,-26.453ZM42.321,60.292C50.227,68.527 49.074,67.208 57.143,76.05C57.251,76.169 57.468,76.054 57.635,76.054C108.855,75.985 172.71,75.78 214.63,75.632C214.945,75.63 215.649,74.495 215.847,74.29C221.227,68.691 220.458,69.021 223.751,65.946C227.052,62.866 228.253,61.444 230.997,58.7L236.378,53.319L257.189,31.247C271.713,41.464 277.736,49.378 277.805,49.472C277.911,49.622 278.093,49.708 278.277,49.708C278.334,49.708 278.395,49.698 278.448,49.681C278.684,49.612 278.847,49.402 278.849,49.159C278.876,48.839 279.967,20.036 264.169,1.558L264.169,-6.122C264.169,-12.229 259.808,-17.128 258.949,-18.04C253.323,-24.236 245.2,-29.474 239.308,-32.804L239.308,-37.291L231.8,-40.632L226.757,-37.729L226.757,-10.855C224.89,-9.264 222.827,-7.73 220.61,-6.249C214.603,-9.178 208.397,-11.804 202.004,-14.103C202.004,-14.103 194.429,-14.477 190.292,-15.795C174.843,-20.719 156.301,-23.589 136.368,-23.589C118.647,-23.589 102.028,-21.321 87.7,-17.357C86.563,-17.042 82.708,-17.507 81.591,-17.198C79.677,-16.669 70.25,-14.334 70.25,-14.334C63.693,-12.005 57.326,-9.329 51.162,-6.338C49.049,-7.75 47.098,-9.215 45.302,-10.727L45.302,-37.908L40.254,-40.809L32.75,-37.464L32.753,-32.807C26.851,-29.476 18.728,-24.244 13.1,-18.041C12.236,-17.128 7.886,-12.229 7.886,-6.122L7.886,1.554C-7.918,20.036 -6.821,48.837 -6.801,49.159C-6.798,49.402 -6.629,49.612 -6.395,49.681C-6.333,49.698 -6.274,49.708 -6.222,49.708C-6.041,49.708 -5.871,49.622 -5.75,49.472C-5.684,49.378 0.244,41.59 14.506,31.503C14.506,31.503 16.724,33.875 19.754,37.099C22.07,39.562 24.861,42.523 27.5,45.306L42.321,60.292Z" style="fill-rule:nonzero;"/>
        </g>
        <g transform="matrix(1.46355,-1.17374,-1.17374,-1.46355,198.547,197.759)">
            <path d="M10.094,-2.259L18.652,-2.259L-5.508,-32.903L-15.238,-28.518L10.094,-2.259Z" style="fill:rgb(88,89,91);fill-rule:nonzero;"/>
        </g>
        <g transform="matrix(-1.52102,-1.09825,-1.09825,1.52102,601.213,237.594)">
            <path d="M7.167,-31.975L14.569,-31.975L-7.313,-0.031L-18.517,-2.878L7.167,-31.975Z" style="fill:rgb(88,89,91);fill-rule:nonzero;"/>
        </g>
        <g transform="matrix(1.87607,0,0,1.87607,605.881,323.357)">
            <path d="M0,48.5L11,48L-3,57C3.5,52.5 19.5,52.5 19.5,52.5L-7.5,66C9.5,60.5 31,53 31,53L31,-31.5C-94.499,-87 -224.5,-31.5 -224.5,-31.5L-224.5,53.5L-184.5,65L-211,51.5L-188.5,56.5L-202,47.5L-192.5,48.5L-199.5,44L-186,39.5C-167,107 -95.999,135.5 -95.999,135.5C-95.999,135.5 -25,108.5 -7,40L7.5,44L0,48.5Z" style="fill-rule:nonzero;"/>
        </g>
        <g transform="matrix(1.87607,0,0,1.87607,260.998,569.481)">
            <path d="M0,-101.691L5.364,-103.168L1.5,-100.023L6.667,-98.191L3,-96.357L7.5,-95.023L4.833,-93.023L9.5,-91.523L6,-88.357L11,-87.523L7.333,-84.857L12.167,-83.691L8.667,-81.357L13.333,-80.191L10,-78.691L15,-76.691L12,-73.691L17,-73.023L14.333,-68.691L18.833,-68.357L16,-65.357L21.167,-63.857L17.667,-61.691L23.333,-59.857L20.667,-56.857L26.5,-56.857L23.333,-53.357L29.167,-52.523L26.5,-49.357L32.333,-48.191L29.167,-45.523L34.833,-43.691L33,-40.691L38.667,-39.857L37,-36.691L41.667,-36.357L39.667,-33.191L46.833,-34.023L43.5,-29.691L48,-30.691L46.5,-27.191L51.5,-27.691L50,-23.691L56.5,-25.523L54.5,-20.691L60.5,-21.691L59,-17.191L64.167,-18.857L62.833,-14.191L69.167,-15.023L67.667,-11.191L71.5,-12.357L70.833,-9.357L76,-9.857L75,-6.357L80.5,-7.857L79.667,-4.357L83.167,-6.023L84,-3.523L86.667,1.477C86.667,1.477 20.833,-19.857 0,-101.691" style="fill:rgb(24,36,56);fill-rule:nonzero;"/>
        </g>
        <g transform="matrix(0.499381,-1.80839,-1.80839,-0.499381,593.509,98.8706)">
            <path d="M-146.828,-75.216C-132.489,55.084 -213.121,162.907 -213.121,162.907L-146.828,180.678C-146.828,180.678 -67.811,82.581 -81.171,-57.085C-91.7,-61.598 -131.135,-71.952 -146.828,-75.216" style="fill:rgb(96,122,216);fill-rule:nonzero;"/>
        </g>
        <g transform="matrix(1.87607,0,0,1.87607,234.713,334.923)">
            <path d="M0,-14.086C-0.362,-15.494 -0.542,-16.199 -0.904,-17.607C3.217,-18.666 5.282,-19.169 9.422,-20.123C9.749,-18.706 9.913,-17.998 10.239,-16.581C8.807,-16.251 8.09,-16.082 6.66,-15.739C11.836,-6.509 14.342,-1.86 19.19,7.494C19.629,-3.033 19.934,-8.304 20.717,-18.857C19.881,-18.686 19.463,-18.599 18.628,-18.424C18.33,-19.848 18.181,-20.561 17.883,-21.984C22.115,-22.87 24.235,-23.285 28.483,-24.064C28.746,-22.633 28.876,-21.917 29.139,-20.486C28.281,-20.329 27.853,-20.248 26.995,-20.087C31.707,-10.613 33.979,-5.85 38.357,3.731C39.304,-6.761 39.863,-12.007 41.154,-22.508C39.726,-22.288 39.011,-22.176 37.583,-21.944C37.351,-23.38 37.234,-24.099 37.001,-25.534C41.182,-26.213 43.276,-26.525 47.468,-27.101C47.666,-25.66 47.763,-24.939 47.961,-23.498C47.04,-23.372 46.579,-23.307 45.658,-23.175C44.269,-12.749 43.084,-2.296 42.103,8.176C39.87,8.54 38.754,8.732 36.526,9.129C31.963,-0.752 29.595,-5.663 24.677,-15.427C23.812,-4.528 23.471,0.914 22.975,11.788C20.758,12.264 19.651,12.507 17.439,13.015C12.551,3.692 7.472,-5.529 2.217,-14.65C1.33,-14.428 0.887,-14.314 0,-14.086" style="fill:rgb(35,31,32);fill-rule:nonzero;"/>
        </g>
        <g transform="matrix(1.87607,0,0,1.87607,352.433,295.341)">
            <path d="M0,22.528C3.741,22.123 5.615,21.939 9.363,21.622C10.242,20.581 10.683,20.062 11.574,19.026C11.044,12.283 10.779,8.911 10.249,2.168C9.187,1.284 8.653,0.847 7.579,-0.03C3.626,0.304 1.652,0.494 -2.293,0.921C-3.2,1.988 -3.65,2.523 -4.544,3.595C-3.775,10.315 -3.392,13.676 -2.623,20.396C-1.568,21.245 -1.044,21.673 0,22.528M-1.357,26.611C-3.479,24.839 -4.552,23.96 -6.719,22.216C-7.691,14.458 -8.176,10.58 -9.148,2.822C-7.384,0.586 -6.489,-0.532 -4.674,-2.749C0.855,-3.374 3.624,-3.64 9.165,-4.083C11.367,-2.253 12.457,-1.329 14.613,0.529C15.142,8.33 15.407,12.228 15.936,20.029C14.145,22.155 13.261,23.223 11.52,25.369C6.365,25.781 3.787,26.03 -1.357,26.611" style="fill:rgb(35,31,32);fill-rule:nonzero;"/>
        </g>
        <g transform="matrix(1.87607,0,0,1.87607,408.739,292.602)">
            <path d="M0,21.876C3.755,21.754 5.633,21.714 9.39,21.681C10.344,20.709 10.823,20.224 11.789,19.258L11.74,2.349C10.748,1.388 10.249,0.909 9.245,-0.046C5.284,-0.011 3.304,0.029 -0.656,0.157C-1.64,1.153 -2.128,1.651 -3.1,2.653C-2.84,9.412 -2.71,12.794 -2.45,19.553C-1.464,20.479 -0.975,20.944 0,21.876M-1.658,25.845C-3.637,23.917 -4.637,22.958 -6.664,21.056C-7.047,13.246 -7.239,9.344 -7.623,1.534C-5.698,-0.562 -4.725,-1.607 -2.752,-3.682C2.799,-3.888 5.578,-3.945 11.132,-3.969C13.188,-1.978 14.204,-0.974 16.213,1.042C16.152,8.86 16.121,12.769 16.061,20.587C14.115,22.572 13.155,23.569 11.258,25.577C6.091,25.6 3.507,25.653 -1.658,25.845" style="fill:rgb(35,31,32);fill-rule:nonzero;"/>
        </g>
        <g transform="matrix(1.87607,0,0,1.87607,454.232,344.261)">
            <path d="M0,-35.904C4.617,-35.782 6.926,-35.689 11.539,-35.443C11.462,-33.991 11.423,-33.264 11.346,-31.812C9.966,-31.885 9.277,-31.922 7.896,-31.984C7.687,-27.352 7.583,-25.038 7.374,-20.406C13.283,-20.139 16.234,-19.951 22.133,-19.472C22.508,-24.093 22.693,-26.402 23.068,-31.023C21.69,-31.134 21.002,-31.19 19.623,-31.291C19.729,-32.741 19.783,-33.467 19.889,-34.918C24.498,-34.582 26.801,-34.382 31.403,-33.922C31.259,-32.474 31.184,-31.752 31.039,-30.304C29.662,-30.442 28.977,-30.506 27.599,-30.633C26.617,-19.95 26.127,-14.61 25.146,-3.927C26.437,-3.809 27.08,-3.747 28.37,-3.618L28.009,0C23.772,-0.424 21.653,-0.606 17.41,-0.916C17.516,-2.367 17.569,-3.091 17.675,-4.542C18.967,-4.447 19.611,-4.4 20.902,-4.296C21.277,-8.917 21.463,-11.227 21.838,-15.848C15.991,-16.323 13.065,-16.508 7.209,-16.772C7,-12.14 6.895,-9.824 6.686,-5.192C7.979,-5.133 8.626,-5.103 9.919,-5.034C9.842,-3.582 9.802,-2.852 9.725,-1.4C5.478,-1.627 3.354,-1.712 -0.896,-1.824C-0.857,-3.278 -0.838,-4.006 -0.8,-5.46C0.494,-5.425 1.14,-5.407 2.434,-5.362C2.803,-16.084 2.986,-21.442 3.355,-32.164C1.975,-32.212 1.285,-32.233 -0.096,-32.269C-0.058,-33.723 -0.038,-34.45 0,-35.904" style="fill:rgb(35,31,32);fill-rule:nonzero;"/>
        </g>
        <g transform="matrix(1.87607,0,0,1.87607,533.676,302.29)">
            <path d="M0,20.126C3.731,20.633 5.597,20.908 9.318,21.504C10.424,20.705 10.979,20.307 12.096,19.516C13.204,12.844 13.759,9.509 14.867,2.837C14.046,1.723 13.633,1.167 12.799,0.058C8.874,-0.57 6.906,-0.859 2.971,-1.395C1.833,-0.576 1.268,-0.168 0.141,0.658C-0.729,7.366 -1.165,10.72 -2.035,17.428C-1.215,18.506 -0.808,19.044 0,20.126M-2.301,23.764C-3.935,21.532 -4.766,20.418 -6.45,18.204C-5.527,10.44 -5.063,6.562 -4.141,-1.202C-1.891,-2.948 -0.754,-3.817 1.542,-5.533C7.062,-4.809 9.817,-4.401 15.317,-3.495C17.021,-1.187 17.861,-0.026 19.514,2.298C18.149,9.996 17.466,13.844 16.102,21.542C13.845,23.173 12.728,23.997 10.516,25.659C5.399,24.816 2.835,24.438 -2.301,23.764" style="fill:rgb(35,31,32);fill-rule:nonzero;"/>
        </g>
        <g transform="matrix(1.87607,0,0,1.87607,589.462,313.873)">
            <path d="M0,19.144C3.695,19.934 5.541,20.353 9.221,21.232C10.388,20.52 10.971,20.167 12.147,19.464C13.759,12.895 14.567,9.611 16.179,3.041C15.44,1.868 15.066,1.281 14.315,0.11C10.435,-0.818 8.489,-1.258 4.593,-2.092C3.393,-1.364 2.796,-0.997 1.606,-0.259C0.23,6.363 -0.455,9.676 -1.831,16.298C-1.092,17.436 -0.727,18.003 0,19.144M-2.575,22.596C-4.041,20.247 -4.787,19.075 -6.305,16.738C-4.797,9.066 -4.041,5.232 -2.533,-2.44C-0.151,-4.01 1.05,-4.787 3.476,-6.323C8.942,-5.179 11.668,-4.562 17.104,-3.237C18.636,-0.805 19.389,0.414 20.868,2.858C18.924,10.431 17.951,14.218 16.007,21.791C13.625,23.245 12.444,23.979 10.105,25.467C5.048,24.234 2.511,23.661 -2.575,22.596" style="fill:rgb(35,31,32);fill-rule:nonzero;"/>
        </g>
        <g transform="matrix(1.87607,0,0,1.87607,229.961,324.605)">
            <path d="M0,-14.086C-0.362,-15.494 -0.542,-16.199 -0.904,-17.607C3.217,-18.666 5.283,-19.169 9.423,-20.123C9.75,-18.706 9.913,-17.997 10.239,-16.58C8.807,-16.25 8.09,-16.082 6.66,-15.739C11.836,-6.509 14.343,-1.86 19.191,7.494C19.629,-3.033 19.934,-8.304 20.717,-18.857C19.881,-18.686 19.463,-18.599 18.628,-18.424C18.33,-19.848 18.181,-20.561 17.883,-21.984C22.115,-22.87 24.235,-23.285 28.483,-24.064C28.746,-22.633 28.876,-21.917 29.139,-20.486C28.281,-20.329 27.853,-20.248 26.995,-20.087C31.707,-10.613 33.979,-5.848 38.357,3.733C39.304,-6.759 39.863,-12.007 41.154,-22.508C39.726,-22.288 39.011,-22.178 37.583,-21.946C37.351,-23.382 37.234,-24.099 37.001,-25.534C41.182,-26.213 43.276,-26.525 47.468,-27.101C47.666,-25.66 47.764,-24.94 47.961,-23.499C47.04,-23.373 46.579,-23.307 45.658,-23.175C44.272,-12.749 43.084,-2.296 42.103,8.176C39.871,8.54 38.755,8.732 36.527,9.129C31.964,-0.752 29.594,-5.664 24.676,-15.428C23.812,-4.529 23.471,0.914 22.976,11.788C20.759,12.264 19.651,12.507 17.439,13.015C12.55,3.693 7.474,-5.53 2.217,-14.65C1.33,-14.428 0.887,-14.314 0,-14.086" style="fill:white;fill-rule:nonzero;"/>
        </g>
        <g transform="matrix(1.87607,0,0,1.87607,347.681,285.025)">
            <path d="M0,22.527C3.741,22.122 5.614,21.937 9.362,21.62C10.241,20.579 10.683,20.061 11.574,19.025C11.044,12.282 10.779,8.908 10.249,2.165C9.187,1.281 8.653,0.846 7.579,-0.031C3.627,0.303 1.652,0.493 -2.293,0.92C-3.2,1.987 -3.651,2.522 -4.546,3.594C-3.777,10.314 -3.391,13.675 -2.622,20.395C-1.567,21.244 -1.044,21.672 0,22.527M-1.357,26.61C-3.479,24.838 -4.551,23.96 -6.719,22.215C-7.691,14.458 -8.176,10.579 -9.148,2.821C-7.384,0.585 -6.489,-0.532 -4.675,-2.749C0.854,-3.374 3.624,-3.64 9.165,-4.083C11.367,-2.253 12.457,-1.33 14.613,0.528C15.142,8.329 15.407,12.227 15.936,20.028C14.145,22.154 13.261,23.222 11.52,25.368C6.365,25.78 3.787,26.029 -1.357,26.61" style="fill:white;fill-rule:nonzero;"/>
        </g>
        <g transform="matrix(1.87607,0,0,1.87607,403.987,282.287)">
            <path d="M0,21.873C3.755,21.751 5.633,21.711 9.39,21.678C10.344,20.706 10.824,20.222 11.79,19.256C11.771,12.492 11.76,9.11 11.74,2.347C10.748,1.386 10.249,0.907 9.245,-0.048C5.284,-0.013 3.304,0.029 -0.656,0.157C-1.639,1.153 -2.13,1.649 -3.102,2.651C-2.842,9.41 -2.71,12.792 -2.45,19.551C-1.464,20.477 -0.975,20.941 0,21.873M-1.658,25.843C-3.637,23.915 -4.638,22.956 -6.664,21.054C-7.048,13.244 -7.239,9.342 -7.623,1.532C-5.699,-0.564 -4.725,-1.608 -2.751,-3.683C2.8,-3.889 5.576,-3.946 11.13,-3.97C13.187,-1.979 14.205,-0.976 16.214,1.04C16.153,8.858 16.12,12.767 16.06,20.585C14.114,22.57 13.155,23.567 11.258,25.575C6.091,25.598 3.506,25.651 -1.658,25.843" style="fill:white;fill-rule:nonzero;"/>
        </g>
        <g transform="matrix(1.87607,0,0,1.87607,449.48,333.941)">
            <path d="M0,-35.903C4.617,-35.781 6.927,-35.688 11.54,-35.442C11.463,-33.99 11.423,-33.263 11.346,-31.811C9.966,-31.884 9.276,-31.921 7.896,-31.983C7.687,-27.351 7.583,-25.037 7.374,-20.405C13.283,-20.138 16.234,-19.95 22.133,-19.471C22.508,-24.092 22.694,-26.403 23.069,-31.024C21.691,-31.135 21.002,-31.189 19.623,-31.29C19.729,-32.74 19.782,-33.466 19.888,-34.917C24.497,-34.581 26.801,-34.381 31.403,-33.921C31.259,-32.473 31.184,-31.749 31.039,-30.301C29.662,-30.439 28.977,-30.505 27.599,-30.632C26.617,-19.949 26.13,-14.61 25.148,-3.927C26.439,-3.809 27.081,-3.745 28.371,-3.616C28.227,-2.169 28.153,-1.447 28.009,0C23.772,-0.424 21.652,-0.605 17.409,-0.915C17.515,-2.366 17.569,-3.09 17.675,-4.541C18.967,-4.446 19.612,-4.399 20.903,-4.295C21.278,-8.916 21.463,-11.226 21.838,-15.847C15.991,-16.322 13.066,-16.507 7.21,-16.771C7.001,-12.139 6.896,-9.825 6.687,-5.193C7.979,-5.134 8.627,-5.102 9.92,-5.033C9.843,-3.581 9.801,-2.851 9.724,-1.399C5.477,-1.626 3.354,-1.711 -0.896,-1.823C-0.857,-3.277 -0.837,-4.005 -0.799,-5.459C0.495,-5.424 1.143,-5.406 2.437,-5.361C2.806,-16.083 2.987,-21.441 3.356,-32.163C1.976,-32.211 1.285,-32.232 -0.096,-32.268C-0.058,-33.722 -0.038,-34.449 0,-35.903" style="fill:white;fill-rule:nonzero;"/>
        </g>
        <g transform="matrix(1.87607,0,0,1.87607,528.923,291.971)">
            <path d="M0,20.128C3.731,20.635 5.597,20.907 9.318,21.503C10.424,20.704 10.979,20.307 12.096,19.516C13.204,12.844 13.759,9.509 14.867,2.837C14.046,1.723 13.632,1.167 12.798,0.058C8.873,-0.57 6.907,-0.859 2.972,-1.394C1.834,-0.576 1.269,-0.169 0.142,0.657C-0.729,7.365 -1.165,10.72 -2.035,17.428C-1.215,18.506 -0.808,19.046 0,20.128M-2.301,23.763C-3.935,21.531 -4.767,20.418 -6.451,18.204C-5.528,10.44 -5.062,6.562 -4.14,-1.202C-1.89,-2.948 -0.754,-3.816 1.542,-5.532C7.062,-4.809 9.818,-4.4 15.318,-3.494C17.021,-1.186 17.86,-0.027 19.513,2.297C18.148,9.995 17.465,13.843 16.101,21.541C13.844,23.172 12.729,23.998 10.517,25.66C5.4,24.817 2.835,24.437 -2.301,23.763" style="fill:white;fill-rule:nonzero;"/>
        </g>
        <g transform="matrix(1.87607,0,0,1.87607,584.709,303.555)">
            <path d="M0,19.144C3.695,19.935 5.541,20.353 9.221,21.232C10.388,20.52 10.973,20.167 12.149,19.464C13.761,12.895 14.568,9.61 16.18,3.04C15.441,1.867 15.066,1.281 14.315,0.11C10.435,-0.818 8.489,-1.258 4.593,-2.092C3.393,-1.364 2.796,-0.997 1.606,-0.259C0.23,6.363 -0.455,9.676 -1.831,16.298C-1.092,17.436 -0.727,18.003 0,19.144M-2.575,22.596C-4.041,20.247 -4.787,19.075 -6.305,16.738C-4.797,9.066 -4.043,5.231 -2.535,-2.441C-0.153,-4.011 1.05,-4.787 3.476,-6.323C8.942,-5.179 11.669,-4.562 17.105,-3.237C18.637,-0.805 19.389,0.415 20.868,2.859C18.924,10.432 17.951,14.218 16.007,21.791C13.625,23.245 12.444,23.979 10.105,25.467C5.048,24.234 2.511,23.661 -2.575,22.596" style="fill:white;fill-rule:nonzero;"/>
        </g>
        <g transform="matrix(1.87607,0,0,1.87607,344.745,423.972)">
            <path d="M0,-6.857L-6.226,-5.462C-6.226,-5.462 -6.561,-9.365 -9.627,-9.087C-9.749,-9.076 -9.857,-9.084 -9.98,-9.052C-10.235,-8.984 -10.483,-8.859 -10.705,-8.718C-11.082,-8.48 -11.391,-8.154 -11.599,-7.759C-11.948,-7.099 -12.023,-6.32 -12.039,-5.586C-12.064,-4.41 -11.995,-3.222 -11.789,-2.068C-11.597,-0.984 -11.448,-0.445 -11.195,0.444C-10.907,1.456 -10.308,2.473 -9.38,3.039C-8.814,3.387 -8.266,3.422 -7.62,3.346C-7.62,3.346 -5.074,3.049 -5.241,-0.798L0.911,-1.429C0.911,-1.429 2.044,7.12 -7.675,8.532C-7.675,8.532 -18.102,10.092 -18.937,-3.232C-18.937,-3.232 -19.718,-10.537 -13.251,-13.38C-13.251,-13.38 -4.609,-16.949 -1.041,-9.589C-1.041,-9.589 -0.186,-8.195 0,-6.857" style="fill:rgb(188,190,192);fill-rule:nonzero;"/>
        </g>
        <g transform="matrix(1.87607,0,0,1.87607,372.854,419.571)">
            <path d="M0,-6.734C-0.372,-5.957 -1.425,-5.691 -2.204,-5.578C-3.145,-5.441 -4.238,-5.298 -5.263,-5.291L-5.709,-9.455C-4.387,-9.672 -3.07,-9.752 -1.644,-9.779C-0.138,-9.81 0.614,-8.017 0,-6.734M3.973,-2.67C6.389,-4.156 6.78,-5.496 6.78,-5.496C8.416,-9.789 5.665,-12.595 5.665,-12.595C3.304,-15.326 -1.211,-14.675 -1.211,-14.675L-12.994,-13.394L-10.652,8.592L-3.851,7.885L-4.743,-0.515L-2.661,-0.793L1.464,7.329L8.954,6.51L3.973,-2.67Z" style="fill:rgb(188,190,192);fill-rule:nonzero;"/>
        </g>
        <g transform="matrix(1.87306,-0.106259,-0.106259,-1.87306,391.541,390.551)">
            <path d="M0.624,0.215L7.492,0.215L7.574,-21.988L0.759,-22.02L0.624,0.215Z" style="fill:rgb(188,190,192);fill-rule:nonzero;"/>
        </g>
        <g transform="matrix(1.87607,0,0,1.87607,437.106,413.441)">
            <path d="M0,-4.402L6.355,-4.849C6.355,-4.849 6.002,-9.234 3.252,-11.502C3.252,-11.502 1.246,-13.361 -1.877,-13.509C-1.877,-13.509 -6.541,-14.197 -9.664,-11.187C-9.664,-11.187 -11.652,-9.699 -12.656,-5.816C-12.656,-5.816 -13.399,-2.972 -12.916,0.243C-12.916,0.243 -12.86,3.625 -9.794,6.766C-9.794,6.766 -6.709,9.795 -1.933,9.162C-1.933,9.162 1.877,8.94 4.015,6.45C4.015,6.45 6.152,4.479 6.375,0.725L0.168,0.446C0.168,0.446 0.111,3.328 -1.877,3.996C-1.877,3.996 -4.795,5.037 -5.724,1.543C-5.724,1.543 -6.505,-2.75 -5.799,-5.556C-5.799,-5.556 -5.186,-9.328 -1.988,-8.343C-1.988,-8.343 -0.038,-7.802 0,-4.402" style="fill:rgb(188,190,192);fill-rule:nonzero;"/>
        </g>
        <g transform="matrix(1.87607,0,0,1.87607,455.445,432.026)">
            <path d="M0,-23.156L6.394,-22.785L5.91,-13.715L12.526,-22.523L18.548,-22.189L12.563,-14.383L18.733,0L11.337,-0.334L7.917,-8.957L5.501,-5.797L5.204,-0.744L-1.152,-1.002L0,-23.156Z" style="fill:rgb(188,190,192);fill-rule:nonzero;"/>
        </g>
        <g transform="matrix(1.87607,0,0,1.87607,498.54,436.42)">
            <path d="M0,-24.086L16.503,-22.004L15.908,-16.986L6.021,-18.176L5.613,-15.016L13.566,-13.975L12.935,-9.143L4.98,-10.109L4.498,-6.578L14.422,-5.24L13.716,0L-2.825,-2.117L0,-24.086Z" style="fill:rgb(188,190,192);fill-rule:nonzero;"/>
        </g>
        <g transform="matrix(1.87607,0,0,1.87607,533.126,440.464)">
            <path d="M0,-23.898L15.276,-20.814L14.272,-15.611L9.776,-16.502L6.468,0L0.187,-1.261L3.457,-17.728L-0.595,-18.509L-0.074,-22.634L-0.223,-22.671L0,-23.898Z" style="fill:rgb(188,190,192);fill-rule:nonzero;"/>
        </g>
        <g transform="matrix(1.87607,0,0,1.87607,330.834,473.315)">
            <path d="M0,-9.594L3.605,-10.114L6.43,-3.162L7.062,-10.633L10.073,-11.117L13.046,-4.129L13.752,-11.637L16.689,-12.082L15.239,1.019L12.005,1.484L9.218,-5.205L8.567,2.006L5.185,2.488L0,-9.594Z" style="fill:rgb(188,190,192);fill-rule:nonzero;"/>
        </g>
        <g transform="matrix(1.87607,0,0,1.87607,378.251,455.029)">
            <path d="M0,6.733C0,6.733 -1.747,7.96 -2.639,5.061C-2.639,5.061 -3.717,1.159 -2.119,-0.068C-2.119,-0.068 -0.631,-1.072 0.186,0.637C0.703,1.719 0.842,3.042 0.839,4.229C0.837,5.096 0.776,6.188 0,6.733M1.918,-2.57C0.648,-3.331 -1.028,-3.398 -2.453,-3.117C-6.207,-2.372 -6.987,1.233 -6.987,1.233C-7.23,2.354 -7.262,3.569 -7.022,4.69C-6.421,7.493 -4.617,9.487 -1.701,9.895C-0.03,10.131 1.929,9.428 3.122,8.221C3.802,7.532 4.386,6.71 4.688,5.786C5.631,2.901 4.591,-0.964 1.918,-2.57" style="fill:rgb(188,190,192);fill-rule:nonzero;"/>
        </g>
        <g transform="matrix(1.87607,0,0,1.87607,403.146,461.893)">
            <path d="M0,-2.957C0,-2.957 -0.362,-2.594 -2.704,-2.594L-2.872,-5.02C-2.879,-5.131 -0.947,-5.223 -0.791,-5.205C-0.342,-5.156 0.217,-4.93 0.456,-4.525C0.755,-4.021 0.416,-3.297 0,-2.957M2.564,-0.865C5.203,-2.24 4.572,-4.619 4.572,-4.619C4.126,-8.225 0.037,-7.891 0.037,-7.891L-6.914,-7.443L-6.096,5.268L-2.23,5.008L-2.528,0.213L-1.338,0.102L0.855,4.822L5.203,4.488L2.564,-0.865Z" style="fill:rgb(188,190,192);fill-rule:nonzero;"/>
        </g>
        <g transform="matrix(1.87607,0,0,1.87607,415.419,470.105)">
            <path d="M0,-12.676L3.94,-12.787L4.237,-3.197L9.218,-3.309L9.329,-0.188L0.409,0.111L0,-12.676Z" style="fill:rgb(188,190,192);fill-rule:nonzero;"/>
        </g>
        <g transform="matrix(1.87607,0,0,1.87607,444.819,451.656)">
            <path d="M0,6.695C-0.072,6.707 -1.139,6.773 -1.138,6.672C-1.138,6.656 -1.102,-0.203 -1.102,-0.203C-0.529,-0.28 0.323,-0.188 0.854,0.052C1.326,0.263 1.7,0.883 1.914,1.343C2.723,3.08 2.248,6.34 0,6.695M5.812,0.65C4.4,-3.03 0.758,-3.065 0.758,-3.065C0.461,-3.139 -4.967,-3.139 -4.967,-3.139L-5.078,9.609L0.126,9.646C3.77,9.834 5.479,6.636 5.479,6.636C7.151,4.072 5.812,0.65 5.812,0.65" style="fill:rgb(188,190,192);fill-rule:nonzero;"/>
        </g>
        <g transform="matrix(1.87607,0,0,1.87607,482.223,462.363)">
            <path d="M0,-2.975L3.568,-2.901C3.568,-2.901 4.051,-6.096 0.78,-7.807C0.78,-7.807 -1.45,-8.922 -4.201,-7.918C-4.201,-7.918 -7.472,-6.395 -7.583,-2.045C-7.583,-2.045 -8.363,2.488 -4.09,4.421C-4.09,4.421 0.557,5.947 2.639,2.453C2.639,2.453 3.308,1.447 3.382,0.296L-0.111,-0.186C-0.111,-0.186 -0.187,1.412 -1.524,1.82C-1.524,1.82 -3.568,2.379 -3.68,-0.967C-3.68,-0.967 -3.68,-5.02 -1.896,-5.391C-1.896,-5.391 0.037,-5.911 0,-2.975" style="fill:rgb(188,190,192);fill-rule:nonzero;"/>
        </g>
        <g transform="matrix(1.87607,0,0,1.87607,492.838,473.816)">
            <path d="M0,-13.689L3.959,-13.269L3.039,-5.074C3.039,-5.074 2.816,-3.597 3.959,-3.291C3.959,-3.291 5.715,-2.705 6.272,-3.988L7.416,-12.88L10.398,-12.49C10.398,-12.49 9.507,-3.959 9.395,-3.597C9.395,-3.597 9.2,-0.14 4.851,-0.195C4.851,-0.195 -1.003,0 -1.003,-4.322L0,-13.689Z" style="fill:rgb(188,190,192);fill-rule:nonzero;"/>
        </g>
        <g transform="matrix(1.87607,0,0,1.87607,527.225,464.099)">
            <path d="M0,-0.82C-0.727,-0.648 -1.685,-0.916 -2.383,-1.066L-1.937,-3.463C-1.937,-3.463 0.182,-3.267 0.628,-2.711C1.114,-2.101 0.768,-1.004 0,-0.82M4.697,-2.32C4.224,-5.861 0.266,-6.084 0.266,-6.084L-5.338,-7.031L-7.4,5.569L-3.526,6.211L-2.773,1.694C0.572,2.364 1.799,2 1.799,2C5.255,1.026 4.697,-2.32 4.697,-2.32" style="fill:rgb(188,190,192);fill-rule:nonzero;"/>
        </g>
        <g transform="matrix(1.87607,0,0,1.87607,392.129,498.624)">
            <path d="M0,-2.342L-3.754,-2.826C-3.754,-2.826 -3.642,-5.799 -1.115,-7.436C-1.115,-7.436 2.23,-9.479 5.724,-7.36C5.724,-7.36 8.623,-5.651 7.322,-1.897C7.322,-1.897 6.988,-0.037 2.304,3.084L8.066,2.787L8.14,6.429L-3.16,7.137L-3.345,3.679C-3.345,3.679 0.817,0.594 2.713,-1.748C3.423,-2.625 3.556,-3.947 2.527,-4.653C1.938,-5.057 1.066,-5.037 0.64,-4.42C0.273,-3.887 0.055,-2.973 0,-2.342" style="fill:rgb(188,190,192);fill-rule:nonzero;"/>
        </g>
        <g transform="matrix(1.87607,0,0,1.87607,422.812,486.766)">
            <path d="M0,9.33C-0.43,9.828 -1.302,9.699 -1.657,9.221C-2.212,8.471 -2.252,7.537 -2.33,6.644C-2.428,5.519 -2.482,4.385 -2.395,3.258C-2.347,2.648 -2.266,2.035 -2.082,1.451C-1.932,0.969 -1.396,0.512 -0.88,0.603C0.198,0.793 0.408,2.062 0.52,2.955C0.521,2.957 1.15,7.992 0,9.33M2.416,-1.412C-0.707,-3.754 -3.792,-1.783 -3.792,-1.783C-7.77,0.559 -6.654,6.988 -6.654,6.988C-5.576,13.084 -0.967,12.75 -0.967,12.75C4.721,12.676 4.906,6.432 4.906,6.432C5.537,1.117 2.416,-1.412 2.416,-1.412" style="fill:rgb(188,190,192);fill-rule:nonzero;"/>
        </g>
        <g transform="matrix(1.87607,0,0,1.87607,436.199,505.597)">
            <path d="M0,-10.26C0,-10.26 3.233,-10.893 4.312,-12.713L7.546,-12.639L7.435,-0.967L10.966,-0.856L10.928,2.453L-0.521,2.379L-0.483,-0.93L3.196,-0.967L3.271,-8.03C3.271,-8.03 0.521,-6.84 0,-6.951L0,-10.26Z" style="fill:rgb(188,190,192);fill-rule:nonzero;"/>
        </g>
        <g transform="matrix(1.87607,0,0,1.87607,461.861,511.874)">
            <path d="M0,-15.686L9.924,-15.241L9.367,-11.561L3.196,-11.821L2.936,-9.815C2.936,-9.815 4.906,-10.93 6.802,-10.26C6.802,-10.26 10.37,-9.704 10.259,-5.317C10.259,-5.317 10.222,-0.485 4.646,-0.411C4.646,-0.411 -0.93,0 -1.747,-5.168L2.044,-5.465C2.044,-5.465 2.453,-3.682 4.273,-3.793C4.668,-3.817 5.129,-4.04 5.42,-4.295C6.223,-4.993 6.189,-6.399 5.293,-6.989C4.3,-7.641 3.228,-7.372 2.416,-6.543L-0.967,-7.174L0,-15.686Z" style="fill:rgb(188,190,192);fill-rule:nonzero;"/>
        </g>
        <g transform="matrix(0.965211,1.60873,1.60873,-0.965211,369.167,97.7133)">
            <path d="M-6.932,-3.925L6.674,-3.925L7.532,-11.242L-7.389,-11.814L-6.932,-3.925Z" style="fill-rule:nonzero;"/>
        </g>
        <g transform="matrix(-0.872863,1.66065,1.66065,0.872863,500.065,111.76)">
            <path d="M-7.62,-12.897L7.066,-12.897L8.181,-5.345L-7.633,-4.991L-7.62,-12.897Z" style="fill-rule:nonzero;"/>
        </g>
        <g transform="matrix(1,0,0,1,123.445,0.14)">
            <path d="M443.319,48.731L443.674,48.083L451.495,55.231L459.735,61.782L444.351,87.52L423.27,124.974L415.09,120.726L337.674,253.436L297.888,200.405L258.427,253.436L246.451,232.997L245.294,234.551L177.968,119.643L171.373,123.068L163.553,109.098L160.844,110.684L149.111,87.873L133.816,60.551L134.66,59.78L133.829,58.164L202.363,6.186L211.857,22.602L212.09,22.419L213.177,24.886L221.295,38.922L225.629,36.159L240.752,63.658L227.197,74.827L231.372,82.419L231.239,82.528L267.456,144.476L285.272,119.023L296.529,135.228L307.784,119.147L325.206,144.227L364.932,75.457L351.065,64.031L366.187,36.53L370.892,39.53L377.458,27.915L379.729,22.792L380.163,23.131L389.762,6.152L443.319,48.731Z" style="fill-rule:nonzero;"/>
        </g>
        <g transform="matrix(1.87607,0,0,1.87607,557.739,224.193)">
            <path d="M0,-91.797L-6.263,-80.365L-7.712,-81.355L-2.453,-91.339L-11.366,-99.194L-16.131,-91.55L-11.611,-88.619L-16.598,-80.096L-27.107,-86.672L-26.189,-88.079L-17.336,-82.19L-14.117,-88.205L-29.303,-97.889L-37.363,-83.23L-29.972,-77.14L-56.574,-31.088L-72.433,-53.918L-88.447,-31.039L-115.554,-77.405L-108.163,-83.495L-116.224,-98.153L-131.409,-88.47L-128.189,-82.454L-119.336,-88.344L-118.419,-86.937L-128.928,-80.361L-133.914,-88.884L-129.407,-91.837L-134.16,-99.459L-143.005,-91.387L-137.814,-81.621L-139.265,-80.63L-145.525,-92.064L-153.163,-85.085L-141.908,-64.833L-137.548,-67.096L-93.742,7.662L-72.708,-20.605L-51.501,7.662L-8.396,-66.367L-4.035,-64.103L7.636,-84.818L0,-91.797Z" style="fill:rgb(254,209,2);fill-rule:nonzero;"/>
        </g>
        <g transform="matrix(-1.47826,-1.15516,-1.15516,1.47826,512.357,31.9059)">
            <path d="M-10.019,-3.437L0.014,-3.437L-1.969,4.455L-10.752,3.814L-10.019,-3.437Z" style="fill:rgb(254,209,2);fill-rule:nonzero;"/>
        </g>
        <g transform="matrix(-0.756845,-1.71663,-1.71663,0.756845,320.018,27.222)">
            <path d="M-9.14,-3.189L-0.875,-3.189L-3.347,6.518L-10.564,5.459L-9.14,-3.189Z" style="fill:rgb(254,209,2);fill-rule:nonzero;"/>
        </g>
    </g>
</svg>
