<svg width="1820" height="512" viewBox="0 0 1820 512" fill="none" xmlns="http://www.w3.org/2000/svg">
<rect width="1820" height="512"/>
<path d="M546.35 331.773C546.35 296.715 556.116 269.42 575.647 249.889C595.178 230.357 622.376 220.592 657.239 220.592C692.981 220.592 720.52 230.211 739.856 249.449C759.192 268.59 768.86 295.445 768.86 330.016C768.86 355.113 764.612 375.719 756.116 391.832C747.718 407.848 735.51 420.348 719.495 429.332C703.577 438.219 683.704 442.662 659.876 442.662C635.657 442.662 615.589 438.805 599.671 431.09C583.85 423.375 571.009 411.168 561.145 394.469C551.282 377.77 546.35 356.871 546.35 331.773ZM612.708 332.066C612.708 353.746 616.712 369.322 624.719 378.795C632.825 388.268 643.811 393.004 657.678 393.004C671.936 393.004 682.971 388.365 690.784 379.088C698.596 369.811 702.503 353.16 702.503 329.137C702.503 308.922 698.401 294.176 690.198 284.898C682.093 275.523 671.057 270.836 657.093 270.836C643.714 270.836 632.971 275.572 624.866 285.045C616.76 294.518 612.708 310.191 612.708 332.066Z" fill="#F8D147"/>
<path d="M796.253 331.773C796.253 296.715 806.018 269.42 825.55 249.889C845.081 230.357 872.278 220.592 907.141 220.592C942.884 220.592 970.423 230.211 989.759 249.449C1009.09 268.59 1018.76 295.445 1018.76 330.016C1018.76 355.113 1014.51 375.719 1006.02 391.832C997.62 407.848 985.413 420.348 969.397 429.332C953.479 438.219 933.606 442.662 909.778 442.662C885.559 442.662 865.491 438.805 849.573 431.09C833.753 423.375 820.911 411.168 811.048 394.469C801.184 377.77 796.253 356.871 796.253 331.773ZM862.61 332.066C862.61 353.746 866.614 369.322 874.622 378.795C882.727 388.268 893.714 393.004 907.581 393.004C921.839 393.004 932.874 388.365 940.686 379.088C948.499 369.811 952.405 353.16 952.405 329.137C952.405 308.922 948.303 294.176 940.1 284.898C931.995 275.523 920.96 270.836 906.995 270.836C893.616 270.836 882.874 275.572 874.768 285.045C866.663 294.518 862.61 310.191 862.61 332.066Z" fill="#F8D147"/>
<path d="M1054.8 224.254H1121.16V299.4H1193.66V224.254H1260.32V439H1193.66V352.135H1121.16V439H1054.8V224.254Z" fill="#F8D147"/>
<path d="M1545.96 331.773C1545.96 296.715 1555.73 269.42 1575.26 249.889C1594.79 230.357 1621.99 220.592 1656.85 220.592C1692.59 220.592 1720.13 230.211 1739.47 249.449C1758.8 268.59 1768.47 295.445 1768.47 330.016C1768.47 355.113 1764.22 375.719 1755.73 391.832C1747.33 407.848 1735.12 420.348 1719.1 429.332C1703.19 438.219 1683.31 442.662 1659.49 442.662C1635.27 442.662 1615.2 438.805 1599.28 431.09C1583.46 423.375 1570.62 411.168 1560.75 394.469C1550.89 377.77 1545.96 356.871 1545.96 331.773ZM1612.32 332.066C1612.32 353.746 1616.32 369.322 1624.33 378.795C1632.43 388.268 1643.42 393.004 1657.29 393.004C1671.55 393.004 1682.58 388.365 1690.39 379.088C1698.21 369.811 1702.11 353.16 1702.11 329.137C1702.11 308.922 1698.01 294.176 1689.81 284.898C1681.7 275.523 1670.67 270.836 1656.7 270.836C1643.32 270.836 1632.58 275.572 1624.48 285.045C1616.37 294.518 1612.32 310.191 1612.32 332.066Z" fill="#F8D147"/>
<path d="M1296.06 331.773C1296.06 296.715 1305.82 269.42 1325.35 249.889C1344.89 230.357 1372.08 220.592 1406.95 220.592C1442.69 220.592 1470.23 230.211 1489.56 249.449C1508.9 268.59 1518.57 295.445 1518.57 330.016C1518.57 355.113 1514.32 375.719 1505.82 391.832C1497.42 407.848 1485.22 420.348 1469.2 429.332C1453.28 438.219 1433.41 442.662 1409.58 442.662C1385.36 442.662 1365.3 438.805 1349.38 431.09C1333.56 423.375 1320.72 411.168 1310.85 394.469C1300.99 377.77 1296.06 356.871 1296.06 331.773ZM1362.41 332.066C1362.41 353.746 1366.42 369.322 1374.43 378.795C1382.53 388.268 1393.52 393.004 1407.39 393.004C1421.64 393.004 1432.68 388.365 1440.49 379.088C1448.3 369.811 1452.21 353.16 1452.21 329.137C1452.21 308.922 1448.11 294.176 1439.91 284.898C1431.8 275.523 1420.76 270.836 1406.8 270.836C1393.42 270.836 1382.68 275.572 1374.57 285.045C1366.47 294.518 1362.41 310.191 1362.41 332.066Z" fill="#F8D147"/>
<path fill-rule="evenodd" clip-rule="evenodd" d="M1472.14 434.565L1472.13 434.571C1455.08 444.087 1434.13 448.662 1409.58 448.662C1384.77 448.662 1363.74 444.717 1346.76 436.489L1346.75 436.486L1346.75 436.483C1329.76 428.201 1316.08 415.124 1305.69 397.52C1295.14 379.663 1290.06 357.636 1290.06 331.773C1290.06 295.574 1300.17 266.585 1321.11 245.646C1342.04 224.713 1370.93 214.592 1406.95 214.592C1443.76 214.592 1473.01 224.522 1493.79 245.19C1514.55 265.742 1524.57 294.302 1524.57 330.016C1524.57 355.737 1520.22 377.387 1511.13 394.626C1502.19 411.683 1489.15 425.023 1472.14 434.565ZM1505.82 391.832C1514.32 375.719 1518.57 355.113 1518.57 330.016C1518.57 295.445 1508.9 268.59 1489.56 249.449C1470.23 230.211 1442.69 220.592 1406.95 220.592C1372.08 220.592 1344.89 230.357 1325.35 249.889C1305.82 269.42 1296.06 296.715 1296.06 331.773C1296.06 356.871 1300.99 377.77 1310.85 394.469C1320.72 411.168 1333.56 423.375 1349.38 431.09C1365.3 438.805 1385.36 442.662 1409.58 442.662C1433.41 442.662 1453.28 438.219 1469.2 429.332C1485.22 420.348 1497.42 407.848 1505.82 391.832ZM1435.39 288.848L1435.37 288.823C1428.55 280.942 1419.27 276.836 1406.8 276.836C1395.03 276.836 1386.01 280.912 1379.13 288.946C1372.44 296.768 1368.41 310.646 1368.41 332.066C1368.41 353.275 1372.38 367.073 1379 374.908C1385.83 382.88 1395.06 387.004 1407.39 387.004C1420.22 387.004 1429.43 382.904 1435.9 375.223C1442.26 367.677 1446.21 352.928 1446.21 329.137C1446.21 309.518 1442.19 296.542 1435.41 288.873L1435.39 288.848ZM1374.43 378.795C1366.42 369.322 1362.41 353.746 1362.41 332.066C1362.41 310.191 1366.47 294.518 1374.57 285.045C1382.68 275.572 1393.42 270.836 1406.8 270.836C1420.76 270.836 1431.8 275.523 1439.91 284.898C1448.11 294.176 1452.21 308.922 1452.21 329.137C1452.21 353.16 1448.3 369.811 1440.49 379.088C1432.68 388.365 1421.64 393.004 1407.39 393.004C1393.52 393.004 1382.53 388.268 1374.43 378.795Z" fill="black"/>
<path fill-rule="evenodd" clip-rule="evenodd" d="M722.43 434.565L722.42 434.571C705.374 444.087 684.423 448.662 659.876 448.662C635.067 448.662 614.031 444.717 597.054 436.489L597.041 436.483C580.057 428.201 566.377 415.124 555.979 397.52C545.432 379.663 540.35 357.636 540.35 331.773C540.35 295.574 550.465 266.585 571.405 245.646C592.338 224.713 621.224 214.592 657.239 214.592C694.054 214.592 723.308 224.523 744.085 245.192C764.842 265.744 774.86 294.304 774.86 330.016C774.86 355.737 770.514 377.387 761.426 394.626C752.479 411.683 739.44 425.023 722.43 434.565ZM756.116 391.832C764.612 375.719 768.86 355.113 768.86 330.016C768.86 295.445 759.192 268.59 739.856 249.449C720.52 230.211 692.981 220.592 657.239 220.592C622.376 220.592 595.178 230.357 575.647 249.889C556.116 269.42 546.35 296.715 546.35 331.773C546.35 356.871 551.282 377.77 561.145 394.469C571.009 411.168 583.85 423.375 599.671 431.09C615.589 438.805 635.657 442.662 659.876 442.662C683.704 442.662 703.577 438.219 719.495 429.332C735.51 420.348 747.718 407.848 756.116 391.832ZM685.681 288.848L685.659 288.823C678.846 280.942 669.562 276.836 657.093 276.836C645.321 276.836 636.299 280.912 629.425 288.946C622.731 296.768 618.708 310.646 618.708 332.066C618.708 353.275 622.676 367.073 629.29 374.908C636.118 382.88 645.35 387.004 657.678 387.004C670.511 387.004 679.727 382.904 686.194 375.223C692.549 367.677 696.503 352.928 696.503 329.137C696.503 309.518 692.485 296.542 685.703 288.873L685.681 288.848ZM624.719 378.795C616.712 369.322 612.708 353.746 612.708 332.066C612.708 310.191 616.76 294.518 624.866 285.045C632.971 275.572 643.714 270.836 657.093 270.836C671.057 270.836 682.093 275.523 690.198 284.898C698.401 294.176 702.503 308.922 702.503 329.137C702.503 353.16 698.596 369.811 690.784 379.088C682.971 388.365 671.936 393.004 657.678 393.004C643.811 393.004 632.825 388.268 624.719 378.795ZM972.333 434.565L972.322 434.571C955.277 444.087 934.325 448.662 909.778 448.662C884.969 448.662 863.933 444.717 846.956 436.489L846.943 436.483C829.96 428.201 816.279 415.124 805.881 397.52C795.334 379.663 790.253 357.636 790.253 331.773C790.253 295.574 800.368 266.585 821.307 245.646C842.24 224.713 871.126 214.592 907.141 214.592C943.956 214.592 973.21 224.523 993.987 245.192C1014.74 265.744 1024.76 294.304 1024.76 330.016C1024.76 355.734 1020.42 377.383 1011.33 394.621C1002.38 411.68 989.344 425.022 972.333 434.565ZM1006.02 391.832C1014.51 375.719 1018.76 355.113 1018.76 330.016C1018.76 295.445 1009.09 268.59 989.759 249.449C970.423 230.211 942.884 220.592 907.141 220.592C872.278 220.592 845.081 230.357 825.55 249.889C806.018 269.42 796.253 296.715 796.253 331.773C796.253 356.871 801.184 377.77 811.048 394.469C820.911 411.168 833.753 423.375 849.573 431.09C865.491 438.805 885.559 442.662 909.778 442.662C933.606 442.662 953.479 438.219 969.397 429.332C985.413 420.348 997.62 407.848 1006.02 391.832ZM935.583 288.848L935.562 288.823C928.748 280.942 919.464 276.836 906.995 276.836C895.224 276.836 886.201 280.912 879.327 288.946C872.634 296.768 868.61 310.646 868.61 332.066C868.61 353.275 872.578 367.073 879.192 374.908C886.02 382.88 895.253 387.004 907.581 387.004C920.413 387.004 929.629 382.904 936.097 375.223C942.452 367.677 946.405 352.928 946.405 329.137C946.405 309.518 942.387 296.542 935.605 288.873L935.583 288.848ZM874.622 378.795C866.614 369.322 862.61 353.746 862.61 332.066C862.61 310.191 866.663 294.518 874.768 285.045C882.874 275.572 893.616 270.836 906.995 270.836C920.96 270.836 931.995 275.523 940.1 284.898C948.303 294.176 952.405 308.922 952.405 329.137C952.405 353.16 948.499 369.811 940.686 379.088C932.874 388.365 921.839 393.004 907.581 393.004C893.714 393.004 882.727 388.268 874.622 378.795ZM1048.8 218.254H1127.16V293.4H1187.66V218.254H1266.32V445H1187.66V358.135H1127.16V445H1048.8V218.254ZM1121.16 352.135H1193.66V439H1260.32V224.254H1193.66V299.4H1121.16V224.254H1054.8V439H1121.16V352.135ZM1722.04 434.565L1722.03 434.571C1704.98 444.087 1684.03 448.662 1659.49 448.662C1634.68 448.662 1613.64 444.717 1596.66 436.489L1596.66 436.486L1596.65 436.483C1579.67 428.201 1565.99 415.124 1555.59 397.52C1545.04 379.663 1539.96 357.636 1539.96 331.773C1539.96 295.574 1550.07 266.585 1571.01 245.646C1591.95 224.713 1620.83 214.592 1656.85 214.592C1693.67 214.592 1722.92 224.524 1743.7 245.196C1764.45 265.747 1774.47 294.306 1774.47 330.016C1774.47 355.733 1770.12 377.381 1761.04 394.618C1752.09 411.679 1739.05 425.022 1722.04 434.565ZM1755.73 391.832C1764.22 375.719 1768.47 355.113 1768.47 330.016C1768.47 295.445 1758.8 268.59 1739.47 249.449C1720.13 230.211 1692.59 220.592 1656.85 220.592C1621.99 220.592 1594.79 230.357 1575.26 249.889C1555.73 269.42 1545.96 296.715 1545.96 331.773C1545.96 356.871 1550.89 377.77 1560.75 394.469C1570.62 411.168 1583.46 423.375 1599.28 431.09C1615.2 438.805 1635.27 442.662 1659.49 442.662C1683.31 442.662 1703.19 438.219 1719.1 429.332C1735.12 420.348 1747.33 407.848 1755.73 391.832ZM1685.29 288.848L1685.27 288.823C1678.45 280.942 1669.17 276.836 1656.7 276.836C1644.93 276.836 1635.91 280.912 1629.03 288.946C1622.34 296.768 1618.32 310.646 1618.32 332.066C1618.32 353.279 1622.29 367.079 1628.9 374.913C1635.73 382.881 1644.96 387.004 1657.29 387.004C1670.12 387.004 1679.34 382.904 1685.8 375.223C1692.16 367.677 1696.11 352.928 1696.11 329.137C1696.11 309.518 1692.09 296.542 1685.31 288.873L1685.29 288.848ZM1624.33 378.795C1616.32 369.322 1612.32 353.746 1612.32 332.066C1612.32 310.191 1616.37 294.518 1624.48 285.045C1632.58 275.572 1643.32 270.836 1656.7 270.836C1670.67 270.836 1681.7 275.523 1689.81 284.898C1698.01 294.176 1702.11 308.922 1702.11 329.137C1702.11 353.16 1698.21 369.811 1690.39 379.088C1682.58 388.365 1671.55 393.004 1657.29 393.004C1643.42 393.004 1632.43 388.268 1624.33 378.795Z" fill="black"/>
<path d="M554.885 114.933L534.317 152.488L529.552 149.239L546.826 116.435L517.547 90.6342L501.893 115.747L516.738 125.375L500.359 153.377L465.835 131.775L468.851 127.148L497.933 146.499L508.512 126.737L458.625 94.9217L432.144 143.082L456.425 163.087L369.031 314.373L316.937 239.371L264.324 314.532L175.276 162.215L199.557 142.21L173.077 94.0498L123.19 125.864L133.767 145.627L162.85 126.276L165.865 130.903L131.342 152.505L114.962 124.504L129.764 114.805L114.154 89.7635L85.0941 116.286L102.148 148.367L97.3832 151.616L76.8153 114.061L51.7273 136.986L88.7003 203.519L103.02 196.082L246.933 441.669L316.031 348.813L385.701 441.669L527.308 198.48L541.628 205.916L579.974 137.858L554.885 114.933Z" fill="#FED102"/>
<path fill-rule="evenodd" clip-rule="evenodd" d="M553.293 105.35L587.543 136.646L544.009 213.914L529.616 206.439L386.332 452.508L316.051 358.837L246.337 452.52L100.726 204.035L86.2891 211.532L44.1792 135.755L78.4079 104.478L81.9815 111.003L115.433 80.4731L134.712 111.399L175.249 85.5481L207.211 143.678L183.034 163.597L264.778 303.421L316.956 228.881L368.565 303.185L448.687 164.486L424.489 144.549L456.453 86.42L496.989 112.272L516.201 81.4511L550.047 111.276L553.293 105.35ZM534.317 152.488L529.552 149.239L546.826 116.435L517.547 90.6342L501.893 115.747L516.738 125.375L500.359 153.377L465.835 131.775L468.851 127.148L497.933 146.499L508.512 126.737L458.625 94.9217L432.144 143.082L456.425 163.087L369.031 314.373L316.937 239.371L264.324 314.532L175.276 162.215L199.557 142.21L173.077 94.0498L123.19 125.864L133.767 145.627L162.85 126.276L165.865 130.903L131.342 152.505L114.962 124.503L129.764 114.805L114.154 89.7635L85.0941 116.286L102.148 148.367L97.3832 151.616L76.8153 114.061L51.7273 136.986L88.7003 203.519L103.02 196.082L246.933 441.669L316.031 348.813L385.701 441.669L527.308 198.48L541.628 205.916L579.974 137.858L554.885 114.933L534.317 152.488Z" fill="black"/>
<path d="M508.324 91.1662L482.351 70.8729L471.517 95.3115L495.554 111.421L508.324 91.1662Z" fill="#FED102"/>
<path fill-rule="evenodd" clip-rule="evenodd" d="M516.293 89.7778L479.983 61.4088L463.989 97.4889L497.338 119.84L516.293 89.7778ZM508.324 91.1662L482.351 70.8729L471.517 95.3115L495.554 111.421L508.324 91.1662Z" fill="black"/>
<path d="M160.323 94.8417L149.369 70.0001L123.466 90.2935L136.213 110.587L160.323 94.8417Z" fill="#FED102"/>
<path fill-rule="evenodd" clip-rule="evenodd" d="M167.868 97.0808L151.744 60.5168L115.508 88.9055L134.38 118.949L167.868 97.0808ZM160.323 94.8417L149.369 70.0001L123.466 90.2935L136.213 110.587L160.323 94.8417Z" fill="black"/>
</svg>
